<?xml version="1.0" encoding="UTF-8" standalone="no"?>
<!DOCTYPE svg PUBLIC "-//W3C//DTD SVG 1.0//EN" "http://www.w3.org/TR/SVG/DTD/svg10.dtd">
<svg height="2079.0" xmlns="http://www.w3.org/2000/svg" width="2716"><rect style="fill:#ffffff;" height="2079.0" y="0" width="2716" x="0"/><g style="stroke:#606060; stroke-opacity:0.15; fill:none;"><path d="M630,992 Q696,1036 762,943"/>
<path d="M630,992 Q845,1179 1060,819"/>
<path d="M630,992 Q579,1041 529,843"/>
<path d="M630,992 Q885,1244 1141,1055"/>
<path d="M630,992 Q877,1214 1125,1000"/>
<path d="M630,992 Q512,1059 394,918"/>
<path d="M630,992 Q692,1025 754,960"/>
<path d="M630,992 Q647,1004 665,595"/>
<path d="M704,1011 Q666,1058 629,1030"/>
<path d="M1329,749 Q1060,995 791,636"/>
<path d="M1329,749 Q1245,808 1161,472"/>
<path d="M1329,749 Q952,1250 576,959"/>
<path d="M1329,749 Q1378,794 1428,652"/>
<path d="M1264,1035 Q1162,1092 1060,819"/>
<path d="M1264,1035 Q1111,1177 958,1004"/>
<path d="M1513,788 Q1071,1275 629,1030"/>
<path d="M684,625 Q702,668 720,659"/>
<path d="M1094,1183 Q1010,1245 926,926"/>
<path d="M1094,1183 Q1048,1218 1002,1160"/>
<path d="M1203,1294 Q1143,1335 1084,1253"/>
<path d="M1203,1294 Q1224,1311 1245,1212"/>
<path d="M1203,1294 Q1148,1323 1094,1183"/>
<path d="M1203,1294 Q1242,1331 1282,1003"/>
<path d="M1203,1294 Q1272,1343 1341,1212"/>
<path d="M1203,1294 Q1117,1359 1031,1089"/>
<path d="M1203,1294 Q1066,1381 929,1245"/>
<path d="M1203,1294 Q1102,1392 1002,1160"/>
<path d="M572,684 Q667,1036 762,943"/>
<path d="M572,684 Q575,686 578,544"/>
<path d="M766,1216 Q873,1281 980,780"/>
<path d="M766,1216 Q768,1259 771,1257"/>
<path d="M766,1216 Q778,1225 791,636"/>
<path d="M766,1216 Q720,1259 674,695"/>
<path d="M766,1216 Q760,1221 754,960"/>
<path d="M988,205 Q1121,1173 1254,1088"/>
<path d="M988,205 Q753,1081 519,925"/>
<path d="M988,205 Q1168,806 1348,649"/>
<path d="M589,726 Q793,1241 997,1075"/>
<path d="M589,726 Q824,960 1060,819"/>
<path d="M589,726 Q559,864 529,843"/>
<path d="M589,726 Q560,742 531,243"/>
<path d="M589,726 Q583,730 578,544"/>
<path d="M1507,693 Q1525,892 1544,877"/>
<path d="M1507,693 Q1519,847 1532,838"/>
<path d="M1507,693 Q1283,1015 1060,819"/>
<path d="M1047,1356 Q978,1413 909,1231"/>
<path d="M1472,805 Q1508,910 1544,877"/>
<path d="M1472,805 Q1318,901 1165,779"/>
<path d="M1472,805 Q1024,1215 576,959"/>
<path d="M661,1065 Q1079,1303 1498,315"/>
<path d="M661,1065 Q645,1075 629,1030"/>
<path d="M790,241 Q776,954 762,943"/>
<path d="M790,241 Q897,417 1005,357"/>
<path d="M790,241 Q896,1242 1002,1160"/>
<path d="M790,241 Q1232,845 1674,437"/>
<path d="M587,433 Q601,905 615,895"/>
<path d="M587,433 Q798,1047 1009,868"/>
<path d="M587,433 Q642,482 697,436"/>
<path d="M587,433 Q707,690 828,611"/>
<path d="M587,433 Q756,1057 926,926"/>
<path d="M587,433 Q534,696 482,662"/>
<path d="M587,433 Q582,547 578,544"/>
<path d="M587,433 Q724,958 861,827"/>
<path d="M587,433 Q669,495 751,447"/>
<path d="M587,433 Q455,528 323,428"/>
<path d="M1102,905 Q865,1164 629,1030"/>
<path d="M947,634 Q694,781 442,435"/>
<path d="M947,634 Q959,1043 971,1036"/>
<path d="M947,634 Q1027,680 1108,594"/>
<path d="M947,634 Q950,636 953,426"/>
<path d="M1133,715 Q1103,966 1074,945"/>
<path d="M1133,715 Q1096,844 1060,819"/>
<path d="M1194,1117 Q1219,1228 1245,1212"/>
<path d="M1194,1117 Q1098,1233 1002,1160"/>
<path d="M1194,1117 Q1113,1378 1033,1305"/>
<path d="M530,602 Q698,1205 866,1062"/>
<path d="M530,602 Q750,1236 971,1036"/>
<path d="M530,602 Q554,625 578,544"/>
<path d="M530,602 Q860,1092 1191,923"/>
<path d="M1558,757 Q1551,883 1544,877"/>
<path d="M1558,757 Q1156,1308 754,960"/>
<path d="M1066,859 Q1063,860 1060,819"/>
<path d="M531,243 Q755,997 980,820"/>
<path d="M531,243 Q727,855 924,748"/>
<path d="M531,243 Q698,1197 866,1062"/>
<path d="M531,243 Q795,997 1060,819"/>
<path d="M531,243 Q746,1350 962,1226"/>
<path d="M531,243 Q739,917 947,758"/>
<path d="M531,243 Q861,1228 1191,923"/>
<path d="M647,621 Q638,1037 629,1030"/>
<path d="M647,621 Q853,925 1060,819"/>
<path d="M1060,779 Q1060,819 1060,819"/>
<path d="M1060,779 Q962,852 865,786"/>
<path d="M1217,1357 Q989,1518 762,943"/>
<path d="M1217,1357 Q1210,1362 1203,1294"/>
<path d="M1547,280 Q1039,1096 531,637"/>
<path d="M1428,652 Q1462,702 1496,670"/>
<path d="M1428,652 Q1122,1489 817,1195"/>
<path d="M1428,652 Q1242,1186 1057,1044"/>
<path d="M1428,652 Q1388,686 1348,649"/>
<path d="M1428,652 Q1392,694 1357,675"/>
<path d="M1428,652 Q1194,841 961,300"/>
<path d="M1428,652 Q1244,975 1060,819"/>
<path d="M1428,652 Q1466,679 1504,609"/>
<path d="M1428,652 Q1137,1487 847,1311"/>
<path d="M1428,652 Q1486,934 1544,877"/>
<path d="M1428,652 Q1454,667 1480,576"/>
<path d="M1428,652 Q914,1371 400,931"/>
<path d="M1428,652 Q1467,676 1507,641"/>
<path d="M1428,652 Q1410,666 1392,592"/>
<path d="M1428,652 Q1028,1429 629,1030"/>
<path d="M1428,652 Q950,1092 473,685"/>
<path d="M1428,652 Q1000,1046 572,684"/>
<path d="M1428,652 Q1305,730 1183,402"/>
<path d="M1428,652 Q1208,844 988,205"/>
<path d="M1428,652 Q1467,719 1507,693"/>
<path d="M1428,652 Q1411,661 1394,617"/>
<path d="M1428,652 Q1091,1180 754,960"/>
<path d="M1428,652 Q1427,755 1427,755"/>
<path d="M1428,652 Q1399,748 1371,727"/>
<path d="M1428,652 Q1446,662 1464,592"/>
<path d="M1428,652 Q1404,707 1381,688"/>
<path d="M1428,652 Q1341,1159 1254,1088"/>
<path d="M1428,652 Q1458,677 1488,623"/>
<path d="M1428,652 Q1392,680 1357,637"/>
<path d="M1428,652 Q1021,1287 615,895"/>
<path d="M1428,652 Q1007,982 587,433"/>
<path d="M1428,652 Q1012,1355 596,972"/>
<path d="M1428,652 Q1005,931 583,585"/>
<path d="M1428,652 Q1239,1187 1050,1056"/>
<path d="M1428,652 Q1179,1386 930,1198"/>
<path d="M1428,652 Q1111,963 795,268"/>
<path d="M1428,652 Q1002,877 577,399"/>
<path d="M1428,652 Q955,1056 482,662"/>
<path d="M1428,652 Q1190,872 953,426"/>
<path d="M1428,652 Q1454,725 1481,707"/>
<path d="M1428,652 Q1353,781 1279,715"/>
<path d="M1428,652 Q975,1292 522,883"/>
<path d="M1428,652 Q1346,712 1264,640"/>
<path d="M1428,652 Q1427,719 1426,719"/>
<path d="M1101,553 Q1077,576 1054,478"/>
<path d="M1101,553 Q865,1235 629,1030"/>
<path d="M1101,553 Q889,1117 678,976"/>
<path d="M924,652 Q1543,1610 2163,1133"/>
<path d="M924,652 Q806,837 688,751"/>
<path d="M924,652 Q776,1152 629,1030"/>
<path d="M924,652 Q1096,767 1269,393"/>
<path d="M924,652 Q822,738 720,659"/>
<path d="M924,652 Q1195,1098 1466,834"/>
<path d="M387,592 Q482,681 578,544"/>
<path d="M1176,1183 Q876,1405 577,399"/>
<path d="M1176,1183 Q1089,1257 1002,1160"/>
<path d="M967,917 Q1013,946 1060,819"/>
<path d="M967,917 Q1565,1699 2163,1133"/>
<path d="M456,418 Q498,441 540,382"/>
<path d="M456,418 Q449,439 442,435"/>
<path d="M456,418 Q542,1103 629,1030"/>
<path d="M456,418 Q758,1003 1060,819"/>
<path d="M917,1261 Q988,1300 1060,819"/>
<path d="M917,1261 Q959,1297 1002,1160"/>
<path d="M966,1050 Q743,1192 520,200"/>
<path d="M966,1050 Q765,1264 565,1112"/>
<path d="M966,1050 Q921,1081 876,891"/>
<path d="M520,200 Q621,337 723,259"/>
<path d="M520,200 Q784,799 1049,660"/>
<path d="M964,907 Q796,1193 629,1030"/>
<path d="M1077,1027 Q1024,1087 971,1036"/>
<path d="M1077,1027 Q779,1266 482,662"/>
<path d="M1077,1027 Q857,1197 637,207"/>
<path d="M1077,1027 Q678,1338 279,611"/>
<path d="M1077,1027 Q1123,1060 1169,953"/>
<path d="M1077,1027 Q1144,1062 1212,750"/>
<path d="M1222,899 Q1361,1033 1501,919"/>
<path d="M1222,899 Q1141,939 1060,819"/>
<path d="M1222,899 Q1351,1025 1481,707"/>
<path d="M730,908 Q676,983 622,943"/>
<path d="M730,908 Q953,1364 1176,1183"/>
<path d="M730,908 Q760,937 790,241"/>
<path d="M730,908 Q675,936 620,671"/>
<path d="M730,908 Q865,1333 1000,1200"/>
<path d="M730,908 Q720,917 710,587"/>
<path d="M730,908 Q914,1315 1098,1198"/>
<path d="M730,908 Q895,1067 1060,819"/>
<path d="M730,908 Q844,1117 958,1004"/>
<path d="M730,908 Q1006,1175 1282,1003"/>
<path d="M730,908 Q725,911 720,659"/>
<path d="M730,908 Q769,941 808,673"/>
<path d="M730,908 Q609,1021 489,465"/>
<path d="M730,908 Q1236,1254 1743,368"/>
<path d="M730,908 Q653,952 577,399"/>
<path d="M730,908 Q683,936 637,607"/>
<path d="M730,908 Q679,1065 629,1030"/>
<path d="M730,908 Q898,1071 1067,308"/>
<path d="M730,908 Q601,1024 473,685"/>
<path d="M730,908 Q630,979 530,602"/>
<path d="M730,908 Q697,964 664,932"/>
<path d="M730,908 Q881,1392 1033,1305"/>
<path d="M730,908 Q695,939 661,463"/>
<path d="M730,908 Q508,1038 286,661"/>
<path d="M730,908 Q829,1307 929,1245"/>
<path d="M730,908 Q611,1018 492,944"/>
<path d="M730,908 Q827,961 924,748"/>
<path d="M1242,1371 Q1283,1399 1325,1189"/>
<path d="M1242,1371 Q1151,1421 1060,819"/>
<path d="M1242,1371 Q1222,1382 1203,1294"/>
<path d="M1464,592 Q1364,693 1264,640"/>
<path d="M1464,592 Q1498,858 1532,838"/>
<path d="M1464,592 Q1208,785 953,426"/>
<path d="M1585,586 Q1296,1377 1008,1109"/>
<path d="M1585,586 Q1107,1279 629,1030"/>
<path d="M1585,586 Q1278,1266 971,1036"/>
<path d="M1585,586 Q1560,603 1536,530"/>
<path d="M1585,586 Q1631,674 1678,630"/>
<path d="M1585,586 Q1627,623 1670,552"/>
<path d="M1585,586 Q1052,1367 519,899"/>
<path d="M931,1182 Q863,1240 796,1094"/>
<path d="M931,1182 Q966,1207 1002,1160"/>
<path d="M998,1064 Q1014,1097 1031,1089"/>
<path d="M998,1064 Q1000,1161 1002,1160"/>
<path d="M1191,923 Q1218,965 1246,949"/>
<path d="M1191,923 Q1028,1172 866,1062"/>
<path d="M1191,923 Q1165,1335 1140,1322"/>
<path d="M864,298 Q618,815 372,636"/>
<path d="M864,298 Q911,1034 958,1004"/>
<path d="M864,298 Q933,1227 1002,1160"/>
<path d="M864,298 Q1165,1085 1466,834"/>
<path d="M864,298 Q861,916 858,914"/>
<path d="M850,966 Q843,969 836,804"/>
<path d="M850,966 Q721,1089 593,626"/>
<path d="M850,966 Q802,1008 754,960"/>
<path d="M850,966 Q898,1013 947,758"/>
<path d="M1341,1212 Q1012,1440 684,1119"/>
<path d="M1341,1212 Q1200,1342 1060,1264"/>
<path d="M1261,1072 Q1146,1182 1031,1089"/>
<path d="M1261,1072 Q1131,1277 1002,1160"/>
<path d="M2143,1095 Q2153,1139 2163,1133"/>
<path d="M2143,1095 Q1386,1782 629,1030"/>
<path d="M2143,1095 Q2127,1108 2112,1015"/>
<path d="M2143,1095 Q2152,1101 2161,990"/>
<path d="M2143,1095 Q2110,1166 2078,1143"/>
<path d="M2143,1095 Q1601,1372 1060,819"/>
<path d="M2143,1095 Q2207,1184 2272,1140"/>
<path d="M1098,1198 Q1150,1323 1203,1294"/>
<path d="M1098,1198 Q1050,1244 1002,1160"/>
<path d="M582,346 Q512,489 442,435"/>
<path d="M582,346 Q764,754 947,634"/>
<path d="M582,346 Q561,401 540,382"/>
<path d="M582,346 Q885,962 1188,801"/>
<path d="M308,1549 Q684,1758 1060,819"/>
<path d="M308,1549 Q447,1685 587,433"/>
<path d="M308,1549 Q788,1868 1269,393"/>
<path d="M308,1549 Q286,1569 264,1518"/>
<path d="M791,636 Q925,926 1060,819"/>
<path d="M866,1062 Q939,1103 1012,1031"/>
<path d="M866,1062 Q918,1097 971,1036"/>
<path d="M866,1062 Q1039,1175 1212,750"/>
<path d="M866,1062 Q963,1127 1060,819"/>
<path d="M866,1062 Q912,1092 958,1004"/>
<path d="M866,1062 Q1205,1307 1544,877"/>
<path d="M866,1062 Q849,1072 832,1027"/>
<path d="M446,605 Q552,1067 659,962"/>
<path d="M446,605 Q699,842 953,426"/>
<path d="M446,605 Q512,641 578,544"/>
<path d="M446,605 Q724,1324 1002,1160"/>
<path d="M446,605 Q584,1160 722,1054"/>
<path d="M1149,742 Q1104,853 1060,819"/>
<path d="M1149,742 Q717,959 286,661"/>
<path d="M1096,975 Q846,1106 596,972"/>
<path d="M1096,975 Q1053,1010 1011,924"/>
<path d="M1254,1088 Q1257,1090 1261,1072"/>
<path d="M1254,1088 Q1393,1199 1532,838"/>
<path d="M1254,1088 Q1128,1225 1002,1160"/>
<path d="M809,1005 Q1007,1166 1205,837"/>
<path d="M809,1005 Q591,1134 373,397"/>
<path d="M809,1005 Q719,1102 629,1030"/>
<path d="M809,1005 Q983,1159 1158,854"/>
<path d="M809,1005 Q822,1018 836,804"/>
<path d="M809,1005 Q920,1090 1032,797"/>
<path d="M809,1005 Q1443,1516 2078,1143"/>
<path d="M809,1005 Q1476,1756 2143,1095"/>
<path d="M809,1005 Q854,1066 900,1032"/>
<path d="M809,1005 Q930,1096 1051,757"/>
<path d="M809,1005 Q837,1086 866,1062"/>
<path d="M809,1005 Q643,1115 478,591"/>
<path d="M809,1005 Q790,1016 771,927"/>
<path d="M809,1005 Q670,1089 531,243"/>
<path d="M809,1005 Q933,1385 1058,1292"/>
<path d="M519,925 Q548,953 577,399"/>
<path d="M519,925 Q740,1100 961,300"/>
<path d="M519,925 Q524,927 529,843"/>
<path d="M519,925 Q760,1294 1002,1160"/>
<path d="M519,925 Q544,948 570,881"/>
<path d="M519,925 Q811,1162 1104,442"/>
<path d="M516,1148 Q840,1362 1165,779"/>
<path d="M516,1148 Q546,1171 576,959"/>
<path d="M516,1148 Q853,1409 1191,923"/>
<path d="M1233,487 Q1197,513 1161,472"/>
<path d="M1233,487 Q958,1257 684,1039"/>
<path d="M1233,487 Q1012,854 791,636"/>
<path d="M1233,487 Q904,1144 576,959"/>
<path d="M980,820 Q804,1140 629,1030"/>
<path d="M450,406 Q887,1590 1325,1189"/>
<path d="M450,406 Q513,1013 576,959"/>
<path d="M450,406 Q833,1623 1217,1357"/>
<path d="M450,406 Q469,476 489,465"/>
<path d="M1169,432 Q980,731 791,636"/>
<path d="M1169,432 Q1165,474 1161,472"/>
<path d="M1169,432 Q1074,866 980,780"/>
<path d="M1169,432 Q872,1211 576,959"/>
<path d="M1743,368 Q1708,467 1674,437"/>
<path d="M1743,368 Q1371,1423 1000,1200"/>
<path d="M2112,1015 Q1658,1464 1205,837"/>
<path d="M661,463 Q744,691 828,611"/>
<path d="M661,463 Q510,842 359,746"/>
<path d="M661,463 Q619,581 578,544"/>
<path d="M661,463 Q926,1153 1191,923"/>
<path d="M953,426 Q980,1135 1008,1109"/>
<path d="M953,426 Q939,935 926,926"/>
<path d="M953,426 Q1242,1003 1532,838"/>
<path d="M953,426 Q977,1177 1002,1160"/>
<path d="M578,544 Q421,1631 264,1518"/>
<path d="M1333,940 Q1152,1168 971,1036"/>
<path d="M1075,1231 Q992,1292 909,1231"/>
<path d="M1075,1231 Q734,1516 394,732"/>
<path d="M1075,1231 Q918,1339 762,943"/>
<path d="M1075,1231 Q723,1455 372,636"/>
<path d="M1075,1231 Q1016,1283 958,1004"/>
<path d="M1075,1231 Q1038,1261 1002,1160"/>
<path d="M1075,1231 Q1021,1295 968,1264"/>
<path d="M1098,380 Q1051,422 1005,357"/>
<path d="M1098,380 Q1034,1074 971,1036"/>
<path d="M1098,380 Q988,1102 878,1009"/>
<path d="M1098,380 Q1049,1243 1000,1200"/>
<path d="M1098,380 Q1169,416 1240,265"/>
<path d="M1098,380 Q735,955 372,636"/>
<path d="M1098,380 Q1028,1046 958,1004"/>
<path d="M827,1322 Q912,1380 997,1075"/>
<path d="M827,1322 Q822,1325 817,1195"/>
<path d="M827,1322 Q942,1428 1057,1044"/>
<path d="M827,1322 Q1127,1542 1428,652"/>
<path d="M827,1322 Q831,1324 836,804"/>
<path d="M827,1322 Q673,1472 519,899"/>
<path d="M827,1322 Q851,1345 876,891"/>
<path d="M827,1322 Q607,1526 387,592"/>
<path d="M827,1322 Q593,1536 359,746"/>
<path d="M827,1322 Q662,1450 497,732"/>
<path d="M827,1322 Q768,1352 710,587"/>
<path d="M827,1322 Q893,1373 960,621"/>
<path d="M827,1322 Q943,1382 1060,819"/>
<path d="M827,1322 Q1226,1556 1625,902"/>
<path d="M827,1322 Q977,1400 1127,1091"/>
<path d="M827,1322 Q496,1767 165,1593"/>
<path d="M827,1322 Q723,1417 620,320"/>
<path d="M827,1322 Q545,1765 264,1518"/>
<path d="M827,1322 Q1149,1578 1471,897"/>
<path d="M827,1322 Q715,1388 604,207"/>
<path d="M827,1322 Q587,1490 348,690"/>
<path d="M827,1322 Q914,1372 1002,1160"/>
<path d="M827,1322 Q797,1344 767,1298"/>
<path d="M827,1322 Q659,1476 492,944"/>
<path d="M827,1322 Q678,1450 529,843"/>
<path d="M827,1322 Q1206,1664 1585,586"/>
<path d="M827,1322 Q683,1462 540,382"/>
<path d="M827,1322 Q950,1416 1074,945"/>
<path d="M827,1322 Q707,1400 587,433"/>
<path d="M827,1322 Q1527,1886 2228,1129"/>
<path d="M827,1322 Q711,1424 596,972"/>
<path d="M827,1322 Q881,1355 935,802"/>
<path d="M827,1322 Q732,1375 637,607"/>
<path d="M827,1322 Q702,1416 578,544"/>
<path d="M827,1322 Q1179,1521 1532,838"/>
<path d="M827,1322 Q657,1417 487,959"/>
<path d="M827,1322 Q674,1423 522,883"/>
<path d="M827,1322 Q696,1407 566,992"/>
<path d="M1084,1253 Q1072,1272 1060,1264"/>
<path d="M1084,1253 Q1057,1274 1031,1089"/>
<path d="M1084,1253 Q1043,1282 1002,1160"/>
<path d="M924,748 Q1031,978 1139,901"/>
<path d="M924,748 Q871,1159 818,1118"/>
<path d="M924,748 Q1056,907 1188,801"/>
<path d="M924,748 Q878,1065 832,1027"/>
<path d="M924,748 Q1195,1004 1466,834"/>
<path d="M1348,649 Q1304,1098 1261,1072"/>
<path d="M1348,649 Q1204,926 1060,819"/>
<path d="M1348,649 Q1226,731 1104,442"/>
<path d="M1056,441 Q1030,461 1005,357"/>
<path d="M1056,441 Q1013,1070 971,1036"/>
<path d="M1056,441 Q1300,1005 1544,877"/>
<path d="M1056,441 Q774,1137 492,944"/>
<path d="M1507,641 Q1519,849 1532,838"/>
<path d="M1507,641 Q1283,945 1060,819"/>
<path d="M795,865 Q860,978 926,926"/>
<path d="M627,182 Q475,588 323,448"/>
<path d="M627,182 Q573,252 520,200"/>
<path d="M627,182 Q456,802 286,661"/>
<path d="M627,182 Q636,380 645,372"/>
<path d="M636,723 Q662,776 688,751"/>
<path d="M1033,1305 Q1032,1305 1031,1089"/>
<path d="M1033,1305 Q1017,1319 1002,1160"/>
<path d="M1080,737 Q1070,824 1060,819"/>
<path d="M1080,737 Q1056,1323 1033,1305"/>
<path d="M1080,737 Q828,1135 576,959"/>
<path d="M883,732 Q971,893 1060,819"/>
<path d="M883,732 Q1076,894 1269,393"/>
<path d="M883,732 Q1142,1164 1401,921"/>
<path d="M770,709 Q912,832 1054,478"/>
<path d="M1054,478 Q1029,496 1005,357"/>
<path d="M1054,478 Q1003,518 953,426"/>
<path d="M1054,478 Q941,717 828,611"/>
<path d="M492,944 Q510,959 529,843"/>
<path d="M492,944 Q553,983 615,895"/>
<path d="M492,944 Q472,997 453,981"/>
<path d="M492,944 Q607,1136 722,1054"/>
<path d="M492,944 Q560,1098 629,1030"/>
<path d="M492,944 Q722,1092 953,426"/>
<path d="M492,944 Q747,1320 1002,1160"/>
<path d="M952,1086 Q977,1178 1002,1160"/>
<path d="M952,1086 Q1004,1115 1057,1044"/>
<path d="M952,1086 Q960,1103 968,1099"/>
<path d="M529,843 Q579,1065 629,1030"/>
<path d="M452,626 Q412,672 372,636"/>
<path d="M1357,637 Q1450,967 1544,877"/>
<path d="M1357,637 Q1444,904 1532,838"/>
<path d="M1334,431 Q1299,1054 1264,1035"/>
<path d="M1334,431 Q1062,813 791,636"/>
<path d="M1334,431 Q955,1249 576,959"/>
<path d="M771,1257 Q674,1345 577,399"/>
<path d="M771,1257 Q1151,1617 1532,838"/>
<path d="M771,1257 Q791,1354 811,1344"/>
<path d="M531,637 Q646,1029 762,943"/>
<path d="M531,637 Q408,779 286,661"/>
<path d="M531,637 Q554,655 578,544"/>
<path d="M795,268 Q1163,1055 1532,838"/>
<path d="M795,268 Q1071,826 1348,649"/>
<path d="M1481,707 Q1506,853 1532,838"/>
<path d="M1481,707 Q1414,745 1348,649"/>
<path d="M659,584 Q706,986 754,960"/>
<path d="M659,584 Q618,607 578,544"/>
<path d="M1020,1119 Q1038,1128 1057,1044"/>
<path d="M1020,1119 Q1559,1668 2099,1181"/>
<path d="M1020,1119 Q812,1231 604,207"/>
<path d="M1020,1119 Q940,1196 861,827"/>
<path d="M1020,1119 Q943,1158 866,1062"/>
<path d="M1020,1119 Q1040,1132 1060,819"/>
<path d="M1020,1119 Q1011,1167 1002,1160"/>
<path d="M1020,1119 Q955,1171 891,1114"/>
<path d="M622,943 Q575,980 529,843"/>
<path d="M622,943 Q472,1021 323,428"/>
<path d="M622,943 Q1044,1334 1466,834"/>
<path d="M373,397 Q809,1281 1246,949"/>
<path d="M373,397 Q431,499 489,465"/>
<path d="M373,397 Q456,447 540,382"/>
<path d="M373,397 Q736,1373 1099,1014"/>
<path d="M1005,357 Q813,1117 622,943"/>
<path d="M1005,357 Q1054,470 1104,442"/>
<path d="M1005,357 Q1032,843 1060,819"/>
<path d="M1005,357 Q791,566 577,399"/>
<path d="M1005,357 Q865,448 725,348"/>
<path d="M1005,357 Q979,443 953,426"/>
<path d="M817,1195 Q972,1288 1128,1209"/>
<path d="M817,1195 Q909,1246 1002,1160"/>
<path d="M817,1195 Q706,1299 596,972"/>
<path d="M817,1195 Q668,1310 519,899"/>
<path d="M817,1195 Q933,1297 1050,1056"/>
<path d="M946,778 Q1090,990 1234,869"/>
<path d="M946,778 Q787,1167 629,1030"/>
<path d="M946,778 Q1003,858 1060,819"/>
<path d="M946,778 Q955,911 964,907"/>
<path d="M946,778 Q1000,949 1055,901"/>
<path d="M1127,1091 Q1165,1314 1203,1294"/>
<path d="M1127,1091 Q1064,1194 1002,1160"/>
<path d="M1127,1091 Q1029,1278 931,1182"/>
<path d="M1127,1091 Q1234,1295 1341,1212"/>
<path d="M1127,1091 Q1079,1125 1031,1089"/>
<path d="M1127,1091 Q961,1243 796,1094"/>
<path d="M400,931 Q654,1405 909,1231"/>
<path d="M400,931 Q464,995 529,843"/>
<path d="M400,931 Q581,1062 762,943"/>
<path d="M400,931 Q426,994 453,981"/>
<path d="M400,931 Q386,941 372,636"/>
<path d="M400,931 Q679,1233 958,1004"/>
<path d="M400,931 Q701,1348 1002,1160"/>
<path d="M400,931 Q561,1144 722,1054"/>
<path d="M400,931 Q933,1447 1466,834"/>
<path d="M640,637 Q1068,1072 1496,670"/>
<path d="M640,637 Q805,1151 971,1036"/>
<path d="M640,637 Q848,1184 1057,1044"/>
<path d="M640,637 Q1159,1124 1678,630"/>
<path d="M640,637 Q638,637 637,207"/>
<path d="M640,637 Q609,661 578,544"/>
<path d="M640,637 Q753,1122 866,1062"/>
<path d="M640,637 Q1001,1256 1362,903"/>
<path d="M640,637 Q564,709 489,465"/>
<path d="M165,1593 Q513,1770 861,827"/>
<path d="M165,1593 Q214,1628 264,1518"/>
<path d="M165,1593 Q854,1987 1544,877"/>
<path d="M165,1593 Q222,1623 279,611"/>
<path d="M629,1030 Q931,1196 1234,869"/>
<path d="M629,1030 Q637,1034 645,650"/>
<path d="M637,207 Q855,1142 1074,945"/>
<path d="M637,207 Q868,1244 1099,1014"/>
<path d="M637,207 Q673,606 710,587"/>
<path d="M637,207 Q819,1313 1002,1160"/>
<path d="M637,207 Q846,1396 1056,1214"/>
<path d="M1074,882 Q1074,945 1074,945"/>
<path d="M1074,882 Q1067,887 1060,819"/>
<path d="M394,732 Q698,1404 1002,1160"/>
<path d="M394,732 Q461,910 529,843"/>
<path d="M507,1029 Q783,1184 1060,819"/>
<path d="M507,1029 Q518,1039 529,843"/>
<path d="M636,393 Q1432,1694 2228,1129"/>
<path d="M636,393 Q848,943 1060,819"/>
<path d="M636,393 Q701,1363 767,1298"/>
<path d="M636,393 Q588,417 540,382"/>
<path d="M636,393 Q802,843 968,721"/>
<path d="M678,976 Q830,1080 983,387"/>
<path d="M678,976 Q730,1003 782,828"/>
<path d="M720,992 Q1110,1353 1501,919"/>
<path d="M720,992 Q744,1035 769,1022"/>
<path d="M519,899 Q524,902 529,843"/>
<path d="M519,899 Q529,906 540,382"/>
<path d="M519,899 Q823,1484 1128,1209"/>
<path d="M519,899 Q759,1404 1000,1200"/>
<path d="M519,899 Q486,999 453,981"/>
<path d="M519,899 Q550,926 582,346"/>
<path d="M519,899 Q760,1377 1002,1160"/>
<path d="M519,899 Q1031,1211 1544,877"/>
<path d="M519,899 Q837,1481 1156,1233"/>
<path d="M971,1036 Q796,1144 622,943"/>
<path d="M971,1036 Q991,1047 1012,1031"/>
<path d="M971,1036 Q1055,1116 1139,901"/>
<path d="M971,1036 Q894,1167 818,1118"/>
<path d="M971,1036 Q730,1248 489,465"/>
<path d="M971,1036 Q1083,1170 1195,1095"/>
<path d="M971,1036 Q647,1218 323,428"/>
<path d="M971,1036 Q985,1213 1000,1200"/>
<path d="M971,1036 Q1079,1106 1188,801"/>
<path d="M971,1036 Q947,1084 923,1064"/>
<path d="M971,1036 Q901,1098 832,1027"/>
<path d="M971,1036 Q891,1416 811,1344"/>
<path d="M971,1036 Q989,1127 1008,1109"/>
<path d="M971,1036 Q774,1179 578,544"/>
<path d="M971,1036 Q1117,1159 1264,640"/>
<path d="M803,990 Q941,1120 1080,737"/>
<path d="M803,990 Q830,1017 858,914"/>
<path d="M803,990 Q802,1053 801,1053"/>
<path d="M803,990 Q860,1298 917,1261"/>
<path d="M803,990 Q778,1002 754,960"/>
<path d="M803,990 Q835,1015 868,750"/>
<path d="M803,990 Q792,999 782,828"/>
<path d="M1245,1212 Q1123,1325 1002,1160"/>
<path d="M1103,1114 Q1153,1323 1203,1294"/>
<path d="M1103,1114 Q1067,1141 1031,1089"/>
<path d="M1103,1114 Q1052,1204 1002,1160"/>
<path d="M570,881 Q573,884 577,399"/>
<path d="M570,881 Q1051,1300 1532,838"/>
<path d="M570,881 Q549,898 529,843"/>
<path d="M570,881 Q1041,1277 1513,788"/>
<path d="M570,881 Q1057,1133 1544,877"/>
<path d="M570,881 Q847,1190 1125,1000"/>
<path d="M1058,1292 Q1059,1292 1060,1264"/>
<path d="M1058,1292 Q1044,1301 1031,1089"/>
<path d="M1058,1292 Q1030,1307 1002,1160"/>
<path d="M1049,660 Q794,895 540,382"/>
<path d="M1049,660 Q962,955 876,891"/>
<path d="M1049,660 Q986,794 924,748"/>
<path d="M487,959 Q1015,1317 1544,877"/>
<path d="M487,959 Q508,975 529,843"/>
<path d="M487,959 Q1034,1238 1581,369"/>
<path d="M1357,675 Q1450,948 1544,877"/>
<path d="M1357,675 Q1444,921 1532,838"/>
<path d="M997,1075 Q1283,1281 1569,979"/>
<path d="M997,1075 Q961,1095 926,926"/>
<path d="M997,1075 Q931,1129 865,786"/>
<path d="M997,1075 Q806,1219 615,895"/>
<path d="M997,1075 Q1570,1511 2143,1095"/>
<path d="M997,1075 Q931,1116 866,1062"/>
<path d="M997,1075 Q1024,1089 1051,757"/>
<path d="M836,804 Q938,863 1040,708"/>
<path d="M836,804 Q736,863 637,207"/>
<path d="M836,804 Q1012,936 1188,801"/>
<path d="M836,804 Q948,875 1060,819"/>
<path d="M1074,490 Q1018,1264 962,1226"/>
<path d="M1074,490 Q1022,1063 971,1036"/>
<path d="M1074,490 Q1026,739 979,694"/>
<path d="M1714,358 Q1694,451 1674,437"/>
<path d="M1714,358 Q1387,1099 1060,819"/>
<path d="M710,221 Q857,461 1005,357"/>
<path d="M710,221 Q736,958 762,943"/>
<path d="M710,221 Q678,1174 646,1145"/>
<path d="M710,221 Q835,397 961,300"/>
<path d="M710,221 Q834,1095 958,1004"/>
<path d="M710,221 Q892,1330 1075,1231"/>
<path d="M710,221 Q839,1344 968,1264"/>
<path d="M688,751 Q608,891 529,843"/>
<path d="M688,751 Q696,1015 704,1011"/>
<path d="M688,751 Q654,770 620,734"/>
<path d="M688,751 Q895,1266 1103,1114"/>
<path d="M688,751 Q523,853 359,746"/>
<path d="M688,751 Q874,997 1060,819"/>
<path d="M688,751 Q827,1029 967,917"/>
<path d="M688,751 Q677,759 666,714"/>
<path d="M688,751 Q1116,1175 1544,877"/>
<path d="M688,751 Q483,888 279,611"/>
<path d="M688,751 Q426,1777 165,1593"/>
<path d="M688,751 Q811,879 935,802"/>
<path d="M688,751 Q741,914 795,865"/>
<path d="M688,751 Q658,1059 629,1030"/>
<path d="M688,751 Q662,772 637,607"/>
<path d="M688,751 Q633,794 578,544"/>
<path d="M688,751 Q777,1111 866,1062"/>
<path d="M688,751 Q1041,956 1394,617"/>
<path d="M688,751 Q978,1019 1269,393"/>
<path d="M688,751 Q726,773 765,735"/>
<path d="M1625,902 Q1127,1283 629,1030"/>
<path d="M1625,902 Q1342,1149 1060,819"/>
<path d="M1625,902 Q1296,1148 967,917"/>
<path d="M1625,902 Q1584,939 1544,877"/>
<path d="M1625,902 Q1317,1200 1009,868"/>
<path d="M782,828 Q584,972 387,592"/>
<path d="M782,828 Q637,1075 492,944"/>
<path d="M1392,592 Q1129,1214 866,1062"/>
<path d="M1392,592 Q1462,886 1532,838"/>
<path d="M1392,592 Q1226,944 1060,819"/>
<path d="M1392,592 Q1172,751 953,426"/>
<path d="M1392,592 Q942,1346 492,944"/>
<path d="M620,320 Q621,943 622,943"/>
<path d="M620,320 Q795,1205 971,1036"/>
<path d="M620,320 Q705,391 790,241"/>
<path d="M620,320 Q665,357 710,221"/>
<path d="M620,320 Q658,397 696,364"/>
<path d="M620,320 Q610,327 601,258"/>
<path d="M620,320 Q665,612 710,587"/>
<path d="M620,320 Q840,953 1060,819"/>
<path d="M620,320 Q598,412 577,399"/>
<path d="M620,320 Q672,391 725,348"/>
<path d="M620,320 Q551,702 482,662"/>
<path d="M620,320 Q628,328 637,207"/>
<path d="M620,320 Q612,327 604,207"/>
<path d="M620,320 Q496,717 372,636"/>
<path d="M620,320 Q687,1009 754,960"/>
<path d="M620,320 Q575,353 531,243"/>
<path d="M1142,1031 Q1237,1120 1333,940"/>
<path d="M1142,1031 Q1009,1110 876,891"/>
<path d="M1471,897 Q1507,924 1544,877"/>
<path d="M1471,897 Q1406,1255 1341,1212"/>
<path d="M1471,897 Q1043,1226 615,895"/>
<path d="M1154,809 Q891,1284 629,1030"/>
<path d="M1154,809 Q1107,865 1060,819"/>
<path d="M984,834 Q1022,853 1060,819"/>
<path d="M995,268 Q786,557 577,399"/>
<path d="M995,268 Q734,854 473,685"/>
<path d="M995,268 Q1089,456 1183,402"/>
<path d="M995,268 Q991,271 988,205"/>
<path d="M995,268 Q828,584 661,463"/>
<path d="M995,268 Q640,1001 286,661"/>
<path d="M995,268 Q1027,849 1060,819"/>
<path d="M995,268 Q962,1230 930,1198"/>
<path d="M995,268 Q929,352 864,298"/>
<path d="M995,268 Q1078,546 1161,472"/>
<path d="M995,268 Q895,349 795,268"/>
<path d="M689,608 Q848,1201 1008,1109"/>
<path d="M689,608 Q843,1198 997,1075"/>
<path d="M689,608 Q874,992 1060,819"/>
<path d="M689,608 Q633,647 578,544"/>
<path d="M2228,1129 Q1644,1544 1060,819"/>
<path d="M2228,1129 Q2185,1168 2143,1095"/>
<path d="M563,463 Q551,469 540,382"/>
<path d="M563,463 Q596,1058 629,1030"/>
<path d="M563,463 Q811,974 1060,819"/>
<path d="M563,463 Q875,1061 1188,801"/>
<path d="M935,802 Q782,1176 629,1030"/>
<path d="M935,802 Q997,858 1060,819"/>
<path d="M926,926 Q879,1067 832,1027"/>
<path d="M926,926 Q925,926 924,748"/>
<path d="M876,668 Q1519,1704 2163,1133"/>
<path d="M876,668 Q963,828 1051,757"/>
<path d="M1426,719 Q1233,872 1040,708"/>
<path d="M1426,719 Q1241,1139 1057,1044"/>
<path d="M1426,719 Q1537,917 1649,861"/>
<path d="M1426,719 Q1250,1033 1074,945"/>
<path d="M1426,719 Q892,1046 359,746"/>
<path d="M1426,719 Q961,1111 497,732"/>
<path d="M1426,719 Q1307,883 1188,801"/>
<path d="M1426,719 Q1057,1080 688,751"/>
<path d="M1426,719 Q1243,962 1060,819"/>
<path d="M1426,719 Q1027,1264 629,1030"/>
<path d="M1426,719 Q1314,1376 1203,1294"/>
<path d="M1426,719 Q917,1068 408,720"/>
<path d="M1426,719 Q1468,771 1510,732"/>
<path d="M1426,719 Q1435,877 1444,873"/>
<path d="M1426,719 Q1125,1513 824,1285"/>
<path d="M1205,837 Q917,1234 629,1030"/>
<path d="M1205,837 Q1035,1000 865,786"/>
<path d="M1205,837 Q1128,889 1051,757"/>
<path d="M916,945 Q958,1232 1000,1200"/>
<path d="M1104,442 Q1053,1208 1002,1160"/>
<path d="M875,851 Q1012,976 1149,742"/>
<path d="M875,851 Q953,905 1032,797"/>
<path d="M875,851 Q822,882 770,709"/>
<path d="M875,851 Q927,882 979,694"/>
<path d="M875,851 Q967,898 1060,819"/>
<path d="M875,851 Q1051,1472 1228,1331"/>
<path d="M875,851 Q770,907 665,595"/>
<path d="M875,851 Q1033,1011 1191,923"/>
<path d="M875,851 Q914,885 953,426"/>
<path d="M875,851 Q871,853 868,750"/>
<path d="M875,851 Q828,896 782,828"/>
<path d="M875,851 Q977,936 1080,737"/>
<path d="M875,851 Q1100,1359 1325,1189"/>
<path d="M875,851 Q985,1057 1095,986"/>
<path d="M875,851 Q776,1072 678,976"/>
<path d="M875,851 Q767,917 659,584"/>
<path d="M875,851 Q881,1222 888,1217"/>
<path d="M875,851 Q919,885 964,668"/>
<path d="M875,851 Q937,1006 1000,967"/>
<path d="M875,851 Q1058,1530 1242,1371"/>
<path d="M1132,864 Q1096,885 1060,819"/>
<path d="M578,1024 Q817,1471 1057,1241"/>
<path d="M578,1024 Q553,1038 529,843"/>
<path d="M578,1024 Q666,1089 754,960"/>
<path d="M578,1024 Q450,1096 323,428"/>
<path d="M1507,818 Q1525,886 1544,877"/>
<path d="M1507,818 Q1260,1110 1014,880"/>
<path d="M1507,818 Q1247,976 987,547"/>
<path d="M1570,637 Q1577,641 1585,586"/>
<path d="M1570,637 Q971,1189 372,636"/>
<path d="M1570,637 Q922,1289 274,808"/>
<path d="M1020,743 Q1040,829 1060,819"/>
<path d="M846,771 Q620,1047 394,918"/>
<path d="M846,771 Q800,1001 754,960"/>
<path d="M846,771 Q719,867 593,626"/>
<path d="M1055,901 Q842,1210 629,1030"/>
<path d="M1100,725 Q1080,837 1060,819"/>
<path d="M1100,725 Q1033,1115 966,1050"/>
<path d="M1100,725 Q743,943 387,377"/>
<path d="M546,716 Q633,773 720,659"/>
<path d="M546,716 Q847,942 1149,742"/>
<path d="M397,461 Q723,826 1049,660"/>
<path d="M1125,1000 Q1328,1158 1532,838"/>
<path d="M1125,1000 Q1041,1075 958,1004"/>
<path d="M1125,1000 Q1334,1110 1544,877"/>
<path d="M1125,1000 Q886,1139 647,621"/>
<path d="M808,673 Q932,755 1056,441"/>
<path d="M808,673 Q906,748 1005,357"/>
<path d="M808,673 Q693,784 578,544"/>
<path d="M725,348 Q1199,778 1674,437"/>
<path d="M725,348 Q768,1378 811,1344"/>
<path d="M559,1053 Q594,1087 629,1030"/>
<path d="M987,547 Q1091,1155 1195,1095"/>
<path d="M664,932 Q790,1010 916,945"/>
<path d="M664,932 Q834,1093 1005,357"/>
<path d="M664,932 Q596,982 529,843"/>
<path d="M664,932 Q926,1154 1188,801"/>
<path d="M664,932 Q811,1109 958,1004"/>
<path d="M664,932 Q833,1313 1002,1160"/>
<path d="M664,932 Q1065,1202 1466,834"/>
<path d="M1028,460 Q1051,506 1074,490"/>
<path d="M1095,986 Q1179,1082 1264,1035"/>
<path d="M960,621 Q984,1131 1008,1109"/>
<path d="M960,621 Q701,813 442,435"/>
<path d="M960,621 Q956,623 953,426"/>
<path d="M960,621 Q894,654 828,611"/>
<path d="M960,621 Q739,1037 519,899"/>
<path d="M960,621 Q1044,1274 1128,1209"/>
<path d="M960,621 Q771,772 582,346"/>
<path d="M960,621 Q1252,1035 1544,877"/>
<path d="M960,621 Q778,1075 596,972"/>
<path d="M1060,819 Q774,1097 489,465"/>
<path d="M1060,819 Q844,1138 629,1030"/>
<path d="M1060,819 Q1365,1034 1670,552"/>
<path d="M1060,819 Q1067,949 1074,945"/>
<path d="M1060,819 Q1136,861 1212,750"/>
<path d="M1060,819 Q1081,922 1102,905"/>
<path d="M1060,819 Q1132,881 1205,837"/>
<path d="M1060,819 Q1302,1075 1544,877"/>
<path d="M1060,819 Q662,1809 264,1518"/>
<path d="M1060,819 Q962,895 865,786"/>
<path d="M1060,819 Q1012,953 964,907"/>
<path d="M1060,819 Q1666,1663 2272,1140"/>
<path d="M1060,819 Q1147,954 1234,869"/>
<path d="M1060,819 Q837,1073 615,895"/>
<path d="M1060,819 Q1124,865 1188,801"/>
<path d="M1060,819 Q818,992 577,399"/>
<path d="M1060,819 Q993,982 926,926"/>
<path d="M1060,819 Q1610,1462 2161,990"/>
<path d="M1060,819 Q1057,902 1055,901"/>
<path d="M1060,819 Q751,1062 442,435"/>
<path d="M1060,819 Q1569,1626 2078,1143"/>
<path d="M1060,819 Q1020,854 980,820"/>
<path d="M1060,819 Q1135,887 1210,820"/>
<path d="M1060,819 Q848,948 637,607"/>
<path d="M1060,819 Q1586,1310 2112,1015"/>
<path d="M1060,819 Q819,996 578,544"/>
<path d="M1060,819 Q1099,929 1139,901"/>
<path d="M1060,819 Q1078,830 1096,782"/>
<path d="M1060,819 Q1034,893 1009,868"/>
<path d="M1060,819 Q1367,1075 1674,437"/>
<path d="M1060,819 Q919,935 779,646"/>
<path d="M1282,1003 Q1142,1276 1002,1160"/>
<path d="M1282,1003 Q1039,1271 796,1094"/>
<path d="M1228,1331 Q1144,1387 1060,819"/>
<path d="M1228,1331 Q1215,1342 1203,1294"/>
<path d="M828,611 Q725,1042 622,943"/>
<path d="M828,611 Q732,699 637,607"/>
<path d="M828,611 Q899,1076 971,1036"/>
<path d="M828,611 Q907,682 987,547"/>
<path d="M828,611 Q746,978 664,932"/>
<path d="M828,611 Q600,850 372,636"/>
<path d="M828,611 Q887,667 947,634"/>
<path d="M828,611 Q803,668 779,646"/>
<path d="M828,611 Q737,673 647,621"/>
<path d="M1401,921 Q1305,981 1210,820"/>
<path d="M1401,921 Q1015,1414 629,1030"/>
<path d="M1401,921 Q1186,1161 971,1036"/>
<path d="M1401,921 Q1472,965 1544,877"/>
<path d="M1401,921 Q1226,1008 1051,757"/>
<path d="M1164,725 Q1177,931 1191,923"/>
<path d="M1164,725 Q896,1219 629,1030"/>
<path d="M1164,725 Q1112,866 1060,819"/>
<path d="M1164,725 Q1152,1329 1140,1322"/>
<path d="M881,810 Q969,860 1057,672"/>
<path d="M881,810 Q755,1141 629,1030"/>
<path d="M881,810 Q1479,1534 2078,1143"/>
<path d="M1381,688 Q1456,892 1532,838"/>
<path d="M1381,688 Q1220,924 1060,819"/>
<path d="M1037,837 Q698,1161 359,746"/>
<path d="M1037,837 Q1267,1011 1498,315"/>
<path d="M1037,837 Q999,1249 962,1226"/>
<path d="M1037,837 Q1004,1057 971,1036"/>
<path d="M1037,837 Q1034,838 1032,797"/>
<path d="M1009,868 Q819,1165 629,1030"/>
<path d="M1009,868 Q920,1087 832,1027"/>
<path d="M1128,1209 Q834,1440 540,382"/>
<path d="M1128,1209 Q820,1392 513,743"/>
<path d="M1128,1209 Q1218,1313 1309,1247"/>
<path d="M1128,1209 Q1064,1241 1000,1200"/>
<path d="M1128,1209 Q790,1427 453,981"/>
<path d="M1128,1209 Q1065,1263 1002,1160"/>
<path d="M615,270 Q974,1222 1333,940"/>
<path d="M615,270 Q601,442 587,433"/>
<path d="M1674,437 Q1125,812 577,399"/>
<path d="M941,965 Q956,1045 971,1036"/>
<path d="M941,965 Q715,1165 489,465"/>
<path d="M941,965 Q949,1009 958,1004"/>
<path d="M965,809 Q1012,853 1060,819"/>
<path d="M1057,672 Q1058,820 1060,819"/>
<path d="M834,760 Q899,816 964,668"/>
<path d="M834,760 Q772,810 710,221"/>
<path d="M834,760 Q906,813 979,694"/>
<path d="M1513,395 Q1522,843 1532,838"/>
<path d="M1513,395 Q1286,958 1060,819"/>
<path d="M1057,1241 Q983,1302 909,1231"/>
<path d="M1057,1241 Q909,1347 762,943"/>
<path d="M1057,1241 Q714,1468 372,636"/>
<path d="M1057,1241 Q1007,1277 958,1004"/>
<path d="M1057,1241 Q1029,1266 1002,1160"/>
<path d="M1057,1241 Q1261,1379 1466,834"/>
<path d="M817,421 Q763,640 710,587"/>
<path d="M817,421 Q871,957 926,926"/>
<path d="M868,750 Q964,903 1060,819"/>
<path d="M868,750 Q950,1351 1033,1305"/>
<path d="M1156,1233 Q799,1563 442,435"/>
<path d="M1156,1233 Q1106,1265 1057,1044"/>
<path d="M1156,1233 Q848,1533 540,382"/>
<path d="M1156,1233 Q896,1484 637,207"/>
<path d="M1156,1233 Q1172,1243 1188,801"/>
<path d="M1156,1233 Q764,1571 372,636"/>
<path d="M1156,1233 Q1079,1285 1002,1160"/>
<path d="M1156,1233 Q994,1374 832,1027"/>
<path d="M489,465 Q533,586 578,544"/>
<path d="M489,465 Q660,1148 832,1027"/>
<path d="M489,465 Q650,1472 811,1344"/>
<path d="M1158,854 Q1328,1005 1498,315"/>
<path d="M1158,854 Q897,1042 636,393"/>
<path d="M1158,854 Q1109,894 1060,819"/>
<path d="M1158,854 Q925,987 692,376"/>
<path d="M1158,854 Q1063,920 968,721"/>
<path d="M1508,651 Q1520,849 1532,838"/>
<path d="M1508,651 Q1284,959 1060,819"/>
<path d="M1508,651 Q1468,687 1428,652"/>
<path d="M646,1145 Q1008,1477 1371,727"/>
<path d="M646,1145 Q920,1382 1194,1117"/>
<path d="M646,1145 Q520,1252 394,918"/>
<path d="M646,1145 Q755,1211 864,298"/>
<path d="M646,1145 Q752,1214 858,914"/>
<path d="M646,1145 Q700,1195 754,960"/>
<path d="M646,1145 Q723,1196 801,1053"/>
<path d="M1210,820 Q1228,961 1246,949"/>
<path d="M568,1006 Q598,1055 629,1030"/>
<path d="M1000,1200 Q1001,1200 1002,1160"/>
<path d="M980,780 Q867,1064 754,960"/>
<path d="M980,780 Q1157,930 1334,431"/>
<path d="M980,780 Q955,1214 930,1198"/>
<path d="M980,780 Q1020,856 1060,819"/>
<path d="M980,780 Q713,947 446,605"/>
<path d="M980,780 Q1122,1176 1264,1035"/>
<path d="M980,780 Q736,1068 492,944"/>
<path d="M980,780 Q778,1132 576,959"/>
<path d="M1008,1109 Q665,1370 323,428"/>
<path d="M516,698 Q576,757 637,207"/>
<path d="M516,698 Q499,711 482,662"/>
<path d="M399,1042 Q453,1088 507,1029"/>
<path d="M399,1042 Q729,1252 1060,819"/>
<path d="M399,1042 Q637,1162 876,891"/>
<path d="M1444,873 Q1207,1179 971,1036"/>
<path d="M1444,873 Q1185,1085 926,926"/>
<path d="M1444,873 Q1084,1124 725,348"/>
<path d="M1444,873 Q1140,1131 836,804"/>
<path d="M1444,873 Q1579,946 1714,358"/>
<path d="M1444,873 Q1316,955 1188,801"/>
<path d="M1444,873 Q1155,1229 866,1062"/>
<path d="M1444,873 Q1494,914 1544,877"/>
<path d="M904,713 Q980,773 1057,672"/>
<path d="M904,713 Q861,1159 818,1118"/>
<path d="M904,713 Q766,1109 629,1030"/>
<path d="M904,713 Q982,892 1060,819"/>
<path d="M2163,1133 Q1611,1424 1060,819"/>
<path d="M2163,1133 Q1396,1615 629,1030"/>
<path d="M1012,1031 Q945,1080 878,1009"/>
<path d="M1012,1031 Q1100,1113 1188,801"/>
<path d="M813,1073 Q717,1125 622,943"/>
<path d="M813,1073 Q1278,1447 1743,368"/>
<path d="M813,1073 Q892,1148 971,1036"/>
<path d="M813,1073 Q1174,1269 1536,530"/>
<path d="M813,1073 Q738,1118 664,932"/>
<path d="M813,1073 Q887,1283 962,1226"/>
<path d="M813,1073 Q592,1235 372,636"/>
<path d="M813,1073 Q885,1110 958,1004"/>
<path d="M813,1073 Q645,1209 478,591"/>
<path d="M813,1073 Q766,1099 720,659"/>
<path d="M813,1073 Q704,1172 596,972"/>
<path d="M813,1073 Q789,1235 766,1216"/>
<path d="M813,1073 Q812,1344 811,1344"/>
<path d="M1060,1264 Q1015,1306 971,1036"/>
<path d="M1060,1264 Q928,1358 796,1094"/>
<path d="M1060,1264 Q1171,1351 1282,1003"/>
<path d="M1060,1264 Q1031,1291 1002,1160"/>
<path d="M1060,1264 Q992,1302 924,748"/>
<path d="M497,732 Q563,1093 629,1030"/>
<path d="M497,732 Q469,750 442,435"/>
<path d="M497,732 Q734,1272 971,1036"/>
<path d="M497,732 Q513,858 529,843"/>
<path d="M497,732 Q1320,1839 2143,1095"/>
<path d="M497,732 Q556,943 615,895"/>
<path d="M497,732 Q657,819 817,421"/>
<path d="M497,732 Q537,769 578,544"/>
<path d="M497,732 Q778,1465 1060,1264"/>
<path d="M497,732 Q452,762 408,720"/>
<path d="M497,732 Q732,1090 967,917"/>
<path d="M497,732 Q981,1084 1466,834"/>
<path d="M497,732 Q1020,1166 1544,877"/>
<path d="M674,695 Q697,709 720,659"/>
<path d="M674,695 Q560,759 446,605"/>
<path d="M865,786 Q958,875 1051,757"/>
<path d="M1309,1247 Q1208,1321 1108,594"/>
<path d="M1309,1247 Q1109,1360 909,1231"/>
<path d="M1183,402 Q1094,485 1005,357"/>
<path d="M1183,402 Q1121,870 1060,819"/>
<path d="M1183,402 Q1357,931 1532,838"/>
<path d="M1000,967 Q1030,986 1060,819"/>
<path d="M1000,967 Q979,1015 958,1004"/>
<path d="M1427,755 Q1485,907 1544,877"/>
<path d="M1427,755 Q1479,881 1532,838"/>
<path d="M1371,727 Q1348,1209 1325,1189"/>
<path d="M1371,727 Q1451,891 1532,838"/>
<path d="M1264,640 Q1398,950 1532,838"/>
<path d="M720,659 Q820,784 921,698"/>
<path d="M720,659 Q581,753 442,435"/>
<path d="M720,659 Q630,742 540,382"/>
<path d="M720,659 Q768,684 817,421"/>
<path d="M720,659 Q864,978 1009,868"/>
<path d="M720,659 Q890,959 1060,819"/>
<path d="M720,659 Q1172,1223 1625,902"/>
<path d="M720,659 Q833,756 947,634"/>
<path d="M720,659 Q1116,1154 1513,788"/>
<path d="M720,659 Q678,696 637,607"/>
<path d="M720,659 Q601,745 482,662"/>
<path d="M720,659 Q755,688 791,636"/>
<path d="M720,659 Q649,703 578,544"/>
<path d="M720,659 Q682,696 645,650"/>
<path d="M1169,953 Q1121,993 1074,945"/>
<path d="M482,662 Q739,1249 997,1075"/>
<path d="M482,662 Q505,858 529,843"/>
<path d="M482,662 Q511,681 540,382"/>
<path d="M482,662 Q778,1227 1074,945"/>
<path d="M482,662 Q649,766 817,421"/>
<path d="M482,662 Q541,700 601,258"/>
<path d="M482,662 Q1280,1674 2078,1143"/>
<path d="M482,662 Q596,772 710,587"/>
<path d="M482,662 Q626,1356 771,1257"/>
<path d="M482,662 Q794,1273 1106,1075"/>
<path d="M482,662 Q532,699 583,585"/>
<path d="M482,662 Q530,691 578,544"/>
<path d="M482,662 Q445,748 408,720"/>
<path d="M482,662 Q415,745 348,690"/>
<path d="M482,662 Q616,787 751,447"/>
<path d="M482,662 Q742,1309 1002,1160"/>
<path d="M482,662 Q448,719 415,688"/>
<path d="M813,683 Q766,727 720,659"/>
<path d="M751,447 Q1123,956 1496,670"/>
<path d="M751,447 Q904,1136 1057,1044"/>
<path d="M751,447 Q904,790 1057,672"/>
<path d="M751,447 Q694,491 637,207"/>
<path d="M751,447 Q670,799 589,726"/>
<path d="M751,447 Q555,861 359,746"/>
<path d="M751,447 Q971,1072 1191,923"/>
<path d="M609,750 Q648,786 688,751"/>
<path d="M609,750 Q570,780 531,243"/>
<path d="M279,611 Q428,718 578,544"/>
<path d="M565,1112 Q799,1243 1034,403"/>
<path d="M565,1112 Q720,1200 876,891"/>
<path d="M926,1099 Q993,1160 1060,819"/>
<path d="M926,1099 Q964,1184 1002,1160"/>
<path d="M1070,1072 Q732,1304 394,732"/>
<path d="M1070,1072 Q1036,1189 1002,1160"/>
<path d="M372,636 Q497,1012 622,943"/>
<path d="M372,636 Q644,1143 916,945"/>
<path d="M372,636 Q688,841 1005,357"/>
<path d="M372,636 Q571,1404 771,1257"/>
<path d="M372,636 Q1023,1135 1674,437"/>
<path d="M372,636 Q690,1353 1008,1109"/>
<path d="M372,636 Q710,1336 1049,999"/>
<path d="M372,636 Q783,1375 1195,1095"/>
<path d="M372,636 Q475,724 578,544"/>
<path d="M372,636 Q687,1388 1002,1160"/>
<path d="M1269,393 Q1032,995 795,865"/>
<path d="M1269,393 Q1024,854 779,646"/>
<path d="M1269,393 Q1118,1204 968,1099"/>
<path d="M582,697 Q637,730 692,376"/>
<path d="M582,697 Q1004,997 1426,719"/>
<path d="M582,697 Q532,725 482,662"/>
<path d="M582,697 Q753,872 924,748"/>
<path d="M540,382 Q491,475 442,435"/>
<path d="M540,382 Q584,1055 629,1030"/>
<path d="M540,382 Q746,618 953,426"/>
<path d="M540,382 Q732,909 924,748"/>
<path d="M601,258 Q655,639 710,587"/>
<path d="M958,1004 Q790,1171 622,943"/>
<path d="M958,1004 Q985,1046 1012,1031"/>
<path d="M958,1004 Q937,1016 916,945"/>
<path d="M958,1004 Q964,1039 971,1036"/>
<path d="M958,1004 Q918,1038 878,1009"/>
<path d="M958,1004 Q941,1016 924,748"/>
<path d="M958,1004 Q979,1220 1000,1200"/>
<path d="M958,1004 Q940,1074 923,1064"/>
<path d="M958,1004 Q864,1349 771,1257"/>
<path d="M958,1004 Q983,1126 1008,1109"/>
<path d="M958,1004 Q1003,1047 1049,999"/>
<path d="M958,1004 Q1076,1193 1195,1095"/>
<path d="M722,1054 Q675,1092 629,1030"/>
<path d="M1050,1056 Q1095,1098 1141,1055"/>
<path d="M1050,1056 Q906,1140 762,943"/>
<path d="M1050,1056 Q1291,1203 1532,838"/>
<path d="M1050,1056 Q1055,1058 1060,819"/>
<path d="M1050,1056 Q1026,1172 1002,1160"/>
<path d="M1050,1056 Q902,1171 754,960"/>
<path d="M665,595 Q836,1225 1008,1109"/>
<path d="M665,595 Q1018,998 1371,727"/>
<path d="M665,595 Q787,1293 909,1231"/>
<path d="M665,595 Q867,1263 1070,1072"/>
<path d="M665,595 Q621,621 578,544"/>
<path d="M665,595 Q838,1064 1011,924"/>
<path d="M665,595 Q1065,1169 1466,834"/>
<path d="M637,607 Q607,635 578,544"/>
<path d="M637,607 Q724,1418 811,1344"/>
<path d="M815,657 Q911,1182 1008,1109"/>
<path d="M815,657 Q1161,1148 1507,818"/>
<path d="M815,657 Q821,662 828,611"/>
<path d="M815,657 Q914,952 1014,880"/>
<path d="M815,657 Q872,1254 930,1198"/>
<path d="M366,82 Q515,1039 664,932"/>
<path d="M366,82 Q1232,1985 2099,1181"/>
<path d="M1031,1089 Q1103,1221 1176,1183"/>
<path d="M1031,1089 Q1062,1203 1094,1183"/>
<path d="M1031,1089 Q857,1254 684,1119"/>
<path d="M1031,1089 Q1156,1157 1282,1003"/>
<path d="M1031,1089 Q1016,1168 1002,1160"/>
<path d="M354,948 Q363,955 372,636"/>
<path d="M354,948 Q662,1218 971,1036"/>
<path d="M354,948 Q441,1031 529,843"/>
<path d="M354,948 Q961,1513 1569,979"/>
<path d="M354,948 Q656,1233 958,1004"/>
<path d="M354,948 Q356,949 359,746"/>
<path d="M1532,838 Q1121,1061 710,587"/>
<path d="M1532,838 Q1080,1447 629,1030"/>
<path d="M1532,838 Q1030,1230 529,843"/>
<path d="M1532,838 Q1073,1297 615,895"/>
<path d="M1532,838 Q1054,1302 577,399"/>
<path d="M1102,415 Q865,1183 629,1030"/>
<path d="M1102,415 Q1053,459 1005,357"/>
<path d="M1102,415 Q983,876 865,786"/>
<path d="M1102,415 Q1081,834 1060,819"/>
<path d="M1102,415 Q1185,487 1269,393"/>
<path d="M1102,415 Q1024,690 947,634"/>
<path d="M1102,415 Q1076,775 1051,757"/>
<path d="M1057,1044 Q937,1195 818,1118"/>
<path d="M1057,1044 Q1294,1190 1532,838"/>
<path d="M1057,1044 Q1029,1185 1002,1160"/>
<path d="M1057,1044 Q1300,1215 1544,877"/>
<path d="M576,959 Q617,998 659,962"/>
<path d="M576,959 Q683,1064 791,636"/>
<path d="M576,959 Q722,1089 868,750"/>
<path d="M576,959 Q804,1438 1033,1305"/>
<path d="M576,959 Q665,1036 754,960"/>
<path d="M1625,915 Q1584,953 1544,877"/>
<path d="M1625,915 Q1158,1163 692,376"/>
<path d="M1625,915 Q1156,1178 688,751"/>
<path d="M1625,915 Q1130,1318 636,393"/>
<path d="M2099,1181 Q1364,1771 629,1030"/>
<path d="M2099,1181 Q1888,1293 1678,630"/>
<path d="M604,207 Q804,516 1005,357"/>
<path d="M604,207 Q616,1037 629,1030"/>
<path d="M604,207 Q1159,865 1714,358"/>
<path d="M604,207 Q485,306 366,82"/>
<path d="M604,207 Q687,1336 771,1257"/>
<path d="M604,207 Q1139,852 1674,437"/>
<path d="M604,207 Q546,515 489,465"/>
<path d="M542,666 Q801,974 1060,819"/>
<path d="M542,666 Q560,678 578,544"/>
<path d="M542,666 Q414,738 286,661"/>
<path d="M1670,552 Q1061,1380 453,981"/>
<path d="M1362,903 Q1166,1139 971,1036"/>
<path d="M1362,903 Q1120,1213 878,1009"/>
<path d="M646,882 Q853,1076 1060,819"/>
<path d="M646,882 Q587,930 529,843"/>
<path d="M646,882 Q824,1277 1002,1160"/>
<path d="M1040,708 Q1018,1095 997,1075"/>
<path d="M1040,708 Q1048,1051 1057,1044"/>
<path d="M1040,708 Q928,764 817,421"/>
<path d="M1040,708 Q827,1024 615,895"/>
<path d="M1040,708 Q875,858 710,587"/>
<path d="M1040,708 Q864,896 688,751"/>
<path d="M1040,708 Q1050,827 1060,819"/>
<path d="M1040,708 Q1073,1094 1106,1075"/>
<path d="M1040,708 Q1115,968 1191,923"/>
<path d="M1040,708 Q834,1203 629,1030"/>
<path d="M1040,708 Q761,956 482,662"/>
<path d="M1040,708 Q785,866 530,602"/>
<path d="M1040,708 Q1102,766 1164,725"/>
<path d="M1040,708 Q993,788 947,758"/>
<path d="M1498,315 Q1403,1327 1309,1247"/>
<path d="M1498,315 Q1343,879 1188,801"/>
<path d="M1498,315 Q1279,988 1060,819"/>
<path d="M1498,315 Q1272,1566 1047,1356"/>
<path d="M1498,315 Q1327,1377 1156,1233"/>
<path d="M1498,315 Q1480,364 1463,354"/>
<path d="M1134,753 Q1083,842 1032,797"/>
<path d="M274,808 Q323,844 372,636"/>
<path d="M274,808 Q298,830 323,428"/>
<path d="M1099,1014 Q864,1154 629,1030"/>
<path d="M1099,1014 Q1050,1189 1002,1160"/>
<path d="M1099,1014 Q1086,1025 1074,945"/>
<path d="M710,627 Q929,908 1149,742"/>
<path d="M710,627 Q752,890 795,865"/>
<path d="M710,627 Q669,1069 629,1030"/>
<path d="M710,627 Q853,1179 997,1075"/>
<path d="M710,627 Q938,1367 1167,1222"/>
<path d="M710,627 Q871,885 1032,797"/>
<path d="M710,627 Q614,948 519,899"/>
<path d="M710,627 Q1090,1228 1471,897"/>
<path d="M710,627 Q644,666 578,544"/>
<path d="M710,627 Q534,835 359,746"/>
<path d="M710,627 Q1469,1825 2228,1129"/>
<path d="M710,627 Q620,704 531,243"/>
<path d="M710,627 Q1055,1133 1401,921"/>
<path d="M596,972 Q800,1080 1005,357"/>
<path d="M596,972 Q562,989 529,843"/>
<path d="M596,972 Q568,994 540,382"/>
<path d="M596,972 Q763,1284 931,1182"/>
<path d="M596,972 Q798,1395 1000,1200"/>
<path d="M596,972 Q524,1043 453,981"/>
<path d="M596,972 Q876,1491 1156,1233"/>
<path d="M596,972 Q802,1238 1008,1109"/>
<path d="M596,972 Q612,1040 629,1030"/>
<path d="M596,972 Q544,1005 492,944"/>
<path d="M1036,1011 Q981,1046 926,926"/>
<path d="M1036,1011 Q1119,1349 1203,1294"/>
<path d="M1036,1011 Q776,1371 516,1148"/>
<path d="M1036,1011 Q697,1215 359,746"/>
<path d="M1036,1011 Q948,1059 861,827"/>
<path d="M1036,1011 Q1048,1022 1060,819"/>
<path d="M1036,1011 Q997,1048 958,1004"/>
<path d="M1036,1011 Q1023,1019 1011,924"/>
<path d="M968,1099 Q798,1236 629,1030"/>
<path d="M968,1099 Q1523,1469 2078,1143"/>
<path d="M968,1099 Q1250,1252 1532,838"/>
<path d="M968,1099 Q985,1175 1002,1160"/>
<path d="M968,1099 Q1256,1326 1544,877"/>
<path d="M1325,1189 Q1192,1259 1060,819"/>
<path d="M1325,1189 Q1264,1334 1203,1294"/>
<path d="M1279,715 Q1411,998 1544,877"/>
<path d="M1279,715 Q1405,945 1532,838"/>
<path d="M1279,715 Q910,925 542,666"/>
<path d="M286,661 Q628,1227 971,1036"/>
<path d="M286,661 Q432,788 578,544"/>
<path d="M947,758 Q906,808 865,786"/>
<path d="M947,758 Q1010,981 1074,945"/>
<path d="M947,758 Q1512,1557 2078,1143"/>
<path d="M947,758 Q1003,870 1060,819"/>
<path d="M947,758 Q616,1078 286,661"/>
<path d="M947,758 Q1043,1387 1140,1322"/>
<path d="M947,758 Q889,1078 832,1027"/>
<path d="M947,758 Q681,929 415,688"/>
<path d="M1649,861 Q1135,1292 621,451"/>
<path d="M1649,861 Q1139,1490 629,1030"/>
<path d="M1649,861 Q1287,1225 926,926"/>
<path d="M1649,861 Q1596,923 1544,877"/>
<path d="M1649,861 Q1429,997 1210,820"/>
<path d="M593,626 Q493,787 394,732"/>
<path d="M593,626 Q585,631 578,544"/>
<path d="M593,626 Q677,1006 762,943"/>
<path d="M593,626 Q797,1318 1002,1160"/>
<path d="M513,743 Q521,850 529,843"/>
<path d="M513,743 Q756,1350 1000,1200"/>
<path d="M876,891 Q940,923 1005,357"/>
<path d="M876,891 Q702,1032 529,843"/>
<path d="M876,891 Q1230,1160 1585,586"/>
<path d="M876,891 Q745,997 615,895"/>
<path d="M876,891 Q942,936 1009,868"/>
<path d="M876,891 Q835,923 795,865"/>
<path d="M876,891 Q901,949 926,926"/>
<path d="M876,891 Q679,1059 482,662"/>
<path d="M876,891 Q863,940 851,930"/>
<path d="M876,891 Q868,896 861,827"/>
<path d="M876,891 Q939,1218 1002,1160"/>
<path d="M359,746 Q444,914 529,843"/>
<path d="M359,746 Q449,815 540,382"/>
<path d="M359,746 Q716,1210 1074,945"/>
<path d="M359,746 Q316,831 274,808"/>
<path d="M359,746 Q499,817 640,637"/>
<path d="M359,746 Q875,1243 1392,592"/>
<path d="M359,746 Q781,1632 1203,1294"/>
<path d="M359,746 Q311,1546 264,1518"/>
<path d="M359,746 Q542,903 725,348"/>
<path d="M359,746 Q468,816 578,544"/>
<path d="M359,746 Q322,776 286,661"/>
<path d="M359,746 Q728,1004 1098,380"/>
<path d="M621,451 Q599,564 578,544"/>
<path d="M645,372 Q633,952 622,943"/>
<path d="M645,372 Q611,428 577,399"/>
<path d="M645,372 Q1161,1081 1678,630"/>
<path d="M645,372 Q799,563 953,426"/>
<path d="M645,372 Q851,1362 1057,1241"/>
<path d="M645,372 Q654,938 664,932"/>
<path d="M645,372 Q588,670 531,637"/>
<path d="M645,372 Q860,1372 1075,1231"/>
<path d="M645,372 Q613,394 582,346"/>
<path d="M645,372 Q684,410 723,259"/>
<path d="M645,372 Q655,602 665,595"/>
<path d="M1161,472 Q1328,759 1496,670"/>
<path d="M1161,472 Q1097,526 1034,403"/>
<path d="M1161,472 Q752,1291 343,932"/>
<path d="M1161,472 Q1151,1063 1141,1055"/>
<path d="M1161,472 Q1057,541 953,426"/>
<path d="M1161,472 Q1117,531 1074,490"/>
<path d="M1161,472 Q1247,555 1334,431"/>
<path d="M1161,472 Q1144,1224 1128,1209"/>
<path d="M1161,472 Q1110,855 1060,819"/>
<path d="M1161,472 Q1118,1268 1075,1231"/>
<path d="M1161,472 Q819,861 478,591"/>
<path d="M1161,472 Q913,750 665,595"/>
<path d="M762,943 Q1094,1167 1427,755"/>
<path d="M762,943 Q607,1077 453,981"/>
<path d="M762,943 Q854,1032 947,634"/>
<path d="M762,943 Q885,1209 1008,1109"/>
<path d="M762,943 Q845,1295 929,1245"/>
<path d="M762,943 Q758,962 754,960"/>
<path d="M968,1264 Q985,1277 1002,1160"/>
<path d="M1056,1214 Q842,1336 629,1030"/>
<path d="M1056,1214 Q1058,1215 1060,819"/>
<path d="M1056,1214 Q1029,1234 1002,1160"/>
<path d="M824,1285 Q1184,1600 1544,877"/>
<path d="M824,1285 Q730,1337 637,607"/>
<path d="M824,1285 Q797,1298 771,1257"/>
<path d="M979,694 Q1019,851 1060,819"/>
<path d="M1032,797 Q1266,1114 1501,919"/>
<path d="M1032,797 Q1265,973 1498,315"/>
<path d="M1032,797 Q956,847 881,810"/>
<path d="M1032,797 Q1340,1021 1649,861"/>
<path d="M1032,797 Q829,936 627,182"/>
<path d="M1032,797 Q934,855 836,804"/>
<path d="M1032,797 Q1053,814 1074,490"/>
<path d="M1032,797 Q864,925 696,364"/>
<path d="M1032,797 Q1587,1466 2143,1095"/>
<path d="M1032,797 Q1110,856 1188,801"/>
<path d="M1032,797 Q1630,1472 2228,1129"/>
<path d="M1032,797 Q1046,827 1060,819"/>
<path d="M1032,797 Q996,823 961,300"/>
<path d="M1032,797 Q1086,1355 1140,1322"/>
<path d="M1032,797 Q1006,833 980,820"/>
<path d="M1032,797 Q1000,826 968,721"/>
<path d="M1032,797 Q1082,823 1133,715"/>
<path d="M1032,797 Q1041,804 1051,757"/>
<path d="M1032,797 Q1111,990 1191,923"/>
<path d="M1032,797 Q1121,894 1210,820"/>
<path d="M1032,797 Q830,1198 629,1030"/>
<path d="M1032,797 Q1021,932 1011,924"/>
<path d="M1032,797 Q1251,1047 1471,897"/>
<path d="M1032,797 Q810,1016 589,726"/>
<path d="M1032,797 Q998,829 964,732"/>
<path d="M1032,797 Q949,1133 866,1062"/>
<path d="M1032,797 Q891,910 751,447"/>
<path d="M1032,797 Q989,827 947,758"/>
<path d="M1032,797 Q1238,986 1444,873"/>
<path d="M1032,797 Q968,834 904,713"/>
<path d="M1032,797 Q781,977 531,243"/>
<path d="M1032,797 Q978,849 924,748"/>
<path d="M967,530 Q921,699 876,668"/>
<path d="M967,530 Q1013,851 1060,819"/>
<path d="M967,530 Q897,646 828,611"/>
<path d="M967,530 Q1106,1087 1246,949"/>
<path d="M967,530 Q867,1360 767,1298"/>
<path d="M677,1022 Q719,1058 762,943"/>
<path d="M677,1022 Q767,1111 858,914"/>
<path d="M811,1344 Q867,1400 924,748"/>
<path d="M962,1226 Q914,1254 866,1062"/>
<path d="M962,1226 Q725,1415 489,465"/>
<path d="M962,1226 Q1075,1337 1188,801"/>
<path d="M689,414 Q864,855 1040,708"/>
<path d="M689,414 Q646,435 604,207"/>
<path d="M689,414 Q638,468 587,433"/>
<path d="M689,414 Q667,431 645,372"/>
<path d="M689,414 Q633,598 578,544"/>
<path d="M689,414 Q938,1039 1188,801"/>
<path d="M689,414 Q730,1285 771,1257"/>
<path d="M689,414 Q925,621 1161,472"/>
<path d="M689,414 Q664,657 640,637"/>
<path d="M689,414 Q1057,1026 1426,719"/>
<path d="M478,591 Q528,640 578,544"/>
<path d="M478,591 Q719,736 961,300"/>
<path d="M478,591 Q740,1398 1002,1160"/>
<path d="M478,591 Q697,1400 917,1261"/>
<path d="M1014,880 Q992,1055 971,1036"/>
<path d="M1014,880 Q1000,892 987,547"/>
<path d="M801,1053 Q1023,1324 1245,1212"/>
<path d="M801,1053 Q586,1207 372,636"/>
<path d="M801,1053 Q879,1098 958,1004"/>
<path d="M801,1053 Q1133,1225 1466,834"/>
<path d="M801,1053 Q829,1074 858,914"/>
<path d="M847,1311 Q1195,1585 1544,877"/>
<path d="M847,1311 Q1189,1637 1532,838"/>
<path d="M847,1311 Q953,1412 1060,819"/>
<path d="M847,1311 Q809,1341 771,1257"/>
<path d="M1581,369 Q1564,383 1547,280"/>
<path d="M1581,369 Q1539,395 1498,315"/>
<path d="M1581,369 Q1547,423 1513,395"/>
<path d="M1581,369 Q1087,1019 593,626"/>
<path d="M1581,369 Q1036,1337 491,989"/>
<path d="M1581,369 Q1325,1252 1070,1072"/>
<path d="M1581,369 Q1556,854 1532,838"/>
<path d="M1581,369 Q976,1106 372,636"/>
<path d="M1581,369 Q990,1426 400,931"/>
<path d="M961,300 Q983,368 1005,357"/>
<path d="M961,300 Q1017,929 1074,882"/>
<path d="M961,300 Q1246,1005 1532,838"/>
<path d="M961,300 Q1010,861 1060,819"/>
<path d="M961,300 Q954,763 947,758"/>
<path d="M961,300 Q942,764 924,748"/>
<path d="M1106,1075 Q915,1209 725,348"/>
<path d="M1106,1075 Q1054,1196 1002,1160"/>
<path d="M1106,1075 Q871,1193 637,207"/>
<path d="M1106,1075 Q1102,1078 1099,1014"/>
<path d="M1544,877 Q1324,1050 1104,442"/>
<path d="M1544,877 Q1528,889 1513,788"/>
<path d="M1544,877 Q904,1862 264,1518"/>
<path d="M1544,877 Q1505,905 1466,834"/>
<path d="M1544,877 Q1556,990 1569,979"/>
<path d="M1544,877 Q1036,1243 529,843"/>
<path d="M1544,877 Q1090,1238 637,607"/>
<path d="M1544,877 Q1538,880 1532,838"/>
<path d="M1544,877 Q1161,1177 779,646"/>
<path d="M1480,576 Q1270,1012 1060,819"/>
<path d="M522,883 Q1027,1153 1532,838"/>
<path d="M522,883 Q525,885 529,843"/>
<path d="M964,668 Q1019,699 1074,490"/>
<path d="M964,668 Q1012,850 1060,819"/>
<path d="M754,960 Q706,992 659,962"/>
<path d="M754,960 Q641,1033 529,843"/>
<path d="M754,960 Q877,1295 1000,1200"/>
<path d="M754,960 Q856,1104 958,1004"/>
<path d="M754,960 Q893,1416 1033,1305"/>
<path d="M2272,1140 Q1753,1461 1234,869"/>
<path d="M2272,1140 Q1450,1737 629,1030"/>
<path d="M684,1039 Q832,1181 980,780"/>
<path d="M684,1039 Q725,1246 766,1216"/>
<path d="M684,1039 Q630,1086 576,959"/>
<path d="M1167,1222 Q1084,1301 1002,1160"/>
<path d="M1167,1222 Q1099,1285 1031,1089"/>
<path d="M1167,1222 Q1153,1335 1140,1322"/>
<path d="M1598,775 Q1571,902 1544,877"/>
<path d="M1598,775 Q1530,825 1463,354"/>
<path d="M1598,775 Q1405,917 1212,750"/>
<path d="M632,1016 Q630,1031 629,1030"/>
<path d="M632,1016 Q841,1191 1051,757"/>
<path d="M615,895 Q572,937 529,843"/>
<path d="M1188,801 Q1119,839 1051,757"/>
<path d="M891,1114 Q946,1197 1002,1160"/>
<path d="M891,1114 Q975,1182 1060,819"/>
<path d="M891,1114 Q974,1179 1057,1044"/>
<path d="M1165,779 Q1130,1008 1096,975"/>
<path d="M1165,779 Q1361,905 1558,757"/>
<path d="M1165,779 Q1112,847 1060,819"/>
<path d="M769,1022 Q673,1082 577,399"/>
<path d="M769,1022 Q1138,1216 1507,818"/>
<path d="M769,1022 Q878,1121 987,547"/>
<path d="M769,1022 Q792,1043 815,657"/>
<path d="M769,1022 Q878,1114 988,205"/>
<path d="M769,1022 Q865,1100 961,300"/>
<path d="M769,1022 Q863,1101 958,1004"/>
<path d="M769,1022 Q935,1134 1102,415"/>
<path d="M930,1198 Q969,1221 1008,1109"/>
<path d="M930,1198 Q860,1260 791,636"/>
<path d="M930,1198 Q928,1199 926,1099"/>
<path d="M930,1198 Q1255,1436 1581,369"/>
<path d="M930,1198 Q993,1255 1056,441"/>
<path d="M930,1198 Q651,1377 372,636"/>
<path d="M930,1198 Q944,1205 958,1004"/>
<path d="M930,1198 Q688,1384 446,605"/>
<path d="M930,1198 Q966,1221 1002,1160"/>
<path d="M930,1198 Q1014,1252 1098,380"/>
<path d="M2161,990 Q1395,1641 629,1030"/>
<path d="M2161,990 Q2130,1202 2099,1181"/>
<path d="M387,377 Q355,477 323,448"/>
<path d="M387,377 Q337,425 287,373"/>
<path d="M387,377 Q487,507 587,433"/>
<path d="M796,1094 Q569,1211 343,932"/>
<path d="M796,1094 Q740,1155 684,1119"/>
<path d="M796,1094 Q926,1175 1056,441"/>
<path d="M796,1094 Q899,1239 1002,1160"/>
<path d="M796,1094 Q644,1206 492,944"/>
<path d="M491,989 Q1017,1444 1544,877"/>
<path d="M491,989 Q510,1001 529,843"/>
<path d="M888,1217 Q948,1264 1008,1109"/>
<path d="M888,1217 Q974,1269 1060,819"/>
<path d="M888,1217 Q945,1248 1002,1160"/>
<path d="M348,690 Q604,964 861,827"/>
<path d="M348,690 Q678,1186 1009,868"/>
<path d="M348,690 Q658,1370 968,1099"/>
<path d="M1496,670 Q1520,896 1544,877"/>
<path d="M1141,1055 Q1074,1164 1008,1109"/>
<path d="M1141,1055 Q1099,1278 1057,1241"/>
<path d="M1141,1055 Q793,1333 446,605"/>
<path d="M1141,1055 Q1071,1228 1002,1160"/>
<path d="M1141,1055 Q767,1379 394,918"/>
<path d="M1141,1055 Q947,1246 754,960"/>
<path d="M861,827 Q916,1087 971,1036"/>
<path d="M861,827 Q960,884 1060,819"/>
<path d="M861,827 Q1065,953 1269,393"/>
<path d="M1140,1322 Q1171,1342 1203,1294"/>
<path d="M1140,1322 Q1002,1406 865,786"/>
<path d="M1140,1322 Q1085,1357 1031,1089"/>
<path d="M1140,1322 Q1100,1358 1060,1264"/>
<path d="M1140,1322 Q1069,1388 998,1064"/>
<path d="M1140,1322 Q1211,1386 1282,1003"/>
<path d="M1140,1322 Q1095,1361 1051,757"/>
<path d="M696,364 Q847,1181 998,1064"/>
<path d="M696,364 Q703,592 710,587"/>
<path d="M696,364 Q878,997 1060,819"/>
<path d="M696,364 Q618,454 540,382"/>
<path d="M710,587 Q1139,1286 1569,979"/>
<path d="M710,587 Q1194,908 1678,630"/>
<path d="M710,587 Q644,626 578,544"/>
<path d="M582,915 Q1063,1238 1544,877"/>
<path d="M582,915 Q793,1090 1005,357"/>
<path d="M582,915 Q821,1121 1060,819"/>
<path d="M582,915 Q555,930 529,843"/>
<path d="M1123,526 Q1088,555 1054,478"/>
<path d="M1123,526 Q900,1163 678,976"/>
<path d="M1123,526 Q1112,561 1101,553"/>
<path d="M1123,526 Q807,1111 492,944"/>
<path d="M1123,526 Q755,913 387,592"/>
<path d="M277,1581 Q270,1585 264,1518"/>
<path d="M277,1581 Q1274,2132 2272,1140"/>
<path d="M277,1581 Q622,1901 968,1099"/>
<path d="M1501,919 Q1021,1212 542,666"/>
<path d="M1501,919 Q1429,977 1357,675"/>
<path d="M1501,919 Q1231,1185 961,300"/>
<path d="M1501,919 Q1280,1058 1060,819"/>
<path d="M1501,919 Q1522,931 1544,877"/>
<path d="M1501,919 Q1472,939 1444,873"/>
<path d="M1501,919 Q1301,1030 1102,415"/>
<path d="M1501,919 Q1212,1174 924,748"/>
<path d="M387,352 Q380,402 373,397"/>
<path d="M323,448 Q360,481 397,461"/>
<path d="M323,448 Q523,558 723,259"/>
<path d="M323,448 Q455,567 587,433"/>
<path d="M323,448 Q623,985 924,748"/>
<path d="M1449,527 Q1517,633 1585,586"/>
<path d="M1449,527 Q1133,759 817,421"/>
<path d="M473,685 Q1071,1001 1670,552"/>
<path d="M473,685 Q496,913 519,899"/>
<path d="M473,685 Q800,1422 1128,1209"/>
<path d="M473,685 Q525,717 578,544"/>
<path d="M473,685 Q1002,1153 1532,838"/>
<path d="M473,685 Q534,1026 596,972"/>
<path d="M442,435 Q815,1158 1188,801"/>
<path d="M1488,623 Q1510,853 1532,838"/>
<path d="M1488,623 Q1274,962 1060,819"/>
<path d="M2078,1143 Q1471,1670 865,786"/>
<path d="M2078,1143 Q2088,1187 2099,1181"/>
<path d="M2078,1143 Q1564,1424 1051,757"/>
<path d="M1129,796 Q1094,839 1060,819"/>
<path d="M583,585 Q580,587 578,544"/>
<path d="M583,585 Q1057,1256 1532,838"/>
<path d="M692,376 Q616,446 540,382"/>
<path d="M692,376 Q876,955 1060,819"/>
<path d="M453,981 Q534,1051 615,895"/>
<path d="M453,981 Q581,1101 710,587"/>
<path d="M684,1119 Q649,1142 615,895"/>
<path d="M1115,769 Q953,911 791,636"/>
<path d="M1115,769 Q1077,790 1040,708"/>
<path d="M929,1245 Q965,1270 1002,1160"/>
<path d="M929,1245 Q981,1332 1033,1305"/>
<path d="M1394,617 Q1463,889 1532,838"/>
<path d="M947,1075 Q1213,1310 1480,576"/>
<path d="M947,1075 Q756,1228 566,992"/>
<path d="M947,1075 Q959,1086 971,1036"/>
<path d="M947,1075 Q1205,1331 1463,354"/>
<path d="M947,1075 Q1079,1171 1212,750"/>
<path d="M620,671 Q596,702 572,684"/>
<path d="M620,671 Q606,679 593,626"/>
<path d="M620,671 Q580,691 540,382"/>
<path d="M620,671 Q599,686 578,544"/>
<path d="M620,671 Q695,1312 771,1257"/>
<path d="M620,671 Q549,716 478,591"/>
<path d="M620,671 Q811,1346 1002,1160"/>
<path d="M620,671 Q783,809 947,634"/>
<path d="M620,671 Q687,995 754,960"/>
<path d="M718,1199 Q701,1214 684,1039"/>
<path d="M1504,609 Q1518,846 1532,838"/>
<path d="M1504,609 Q1282,940 1060,819"/>
<path d="M1504,609 Q1251,1019 999,891"/>
<path d="M1504,609 Q1524,891 1544,877"/>
<path d="M1504,609 Q1316,1381 1128,1209"/>
<path d="M1272,809 Q1080,1394 888,1217"/>
<path d="M1272,809 Q1409,879 1547,280"/>
<path d="M1272,809 Q1141,991 1011,924"/>
<path d="M1272,809 Q978,1194 684,1039"/>
<path d="M343,932 Q674,1161 1005,357"/>
<path d="M343,932 Q486,1103 629,1030"/>
<path d="M343,932 Q436,1021 529,843"/>
<path d="M343,932 Q575,1108 808,673"/>
<path d="M343,932 Q557,1457 771,1257"/>
<path d="M343,932 Q943,1469 1544,877"/>
<path d="M1002,1160 Q1098,1234 1195,1095"/>
<path d="M1002,1160 Q1005,1161 1008,1109"/>
<path d="M1011,924 Q968,968 926,926"/>
<path d="M1011,924 Q1107,1353 1203,1294"/>
<path d="M1011,924 Q906,1146 801,1053"/>
<path d="M1011,924 Q1241,1069 1471,897"/>
<path d="M1011,924 Q1114,1432 1217,1357"/>
<path d="M1011,924 Q1168,1276 1325,1189"/>
<path d="M1011,924 Q1035,938 1060,819"/>
<path d="M1011,924 Q984,1022 958,1004"/>
<path d="M1011,924 Q1119,1407 1228,1331"/>
<path d="M1011,924 Q588,1952 165,1593"/>
<path d="M1011,924 Q1101,997 1191,923"/>
<path d="M1536,530 Q994,1377 453,981"/>
<path d="M1536,530 Q1298,1004 1060,819"/>
<path d="M892,1045 Q931,1080 971,1036"/>
<path d="M983,387 Q968,440 953,426"/>
<path d="M347,883 Q676,1175 1005,357"/>
<path d="M347,883 Q488,1126 629,1030"/>
<path d="M347,883 Q438,969 529,843"/>
<path d="M347,883 Q470,956 593,626"/>
<path d="M347,883 Q356,888 366,82"/>
<path d="M347,883 Q496,1017 645,372"/>
<path d="M746,720 Q717,771 688,751"/>
<path d="M1627,930 Q1585,962 1544,877"/>
<path d="M394,918 Q651,1437 909,1231"/>
<path d="M394,918 Q461,972 529,843"/>
<path d="M394,918 Q383,927 372,636"/>
<path d="M394,918 Q676,1284 958,1004"/>
<path d="M394,918 Q698,1394 1002,1160"/>
<path d="M1317,663 Q1430,971 1544,877"/>
<path d="M1317,663 Q1424,929 1532,838"/>
<path d="M1317,663 Q1372,717 1428,652"/>
<path d="M999,891 Q960,912 921,698"/>
<path d="M999,891 Q707,1047 415,688"/>
<path d="M999,891 Q1029,916 1060,819"/>
<path d="M287,373 Q660,699 1034,403"/>
<path d="M287,373 Q437,522 587,433"/>
<path d="M566,992 Q509,1020 453,981"/>
<path d="M1067,308 Q1010,474 953,426"/>
<path d="M1067,308 Q1036,386 1005,357"/>
<path d="M1067,308 Q919,1343 771,1257"/></g><g font-family="Monospace"><text fill="#6a6aa2" y="992" font-size="10" x="617">sdl2</text>
<text fill="#0000ff" y="1011" font-size="10" x="685">dialog</text>
<text fill="#6a6aa2" y="749" font-size="10" x="1277">xcb-util-keysyms</text>
<text fill="#6a6aa2" y="1035" font-size="10" x="1225">libxkbcommon</text>
<text fill="#6a6aa2" y="788" font-size="11" x="1506">db</text>
<text fill="#0000ff" y="625" font-size="10" x="671">stow</text>
<text fill="#6a6aa2" y="1183" font-size="10" x="1059">lib32-expat</text>
<text fill="#6a6aa2" y="1294" font-size="28" x="1112">lib32-mesa</text>
<text fill="#6a6aa2" y="684" font-size="10" x="553">libxpm</text>
<text fill="#6a6aa2" y="1216" font-size="10" x="701">startup-notification</text>
<text fill="#6a6aa2" y="205" font-size="10" x="959">libvorbis</text>
<text fill="#6a6aa2" y="726" font-size="10" x="580">lz4</text>
<text fill="#6a6aa2" y="693" font-size="10" x="1481">vid.stab</text>
<text fill="#0000ff" y="1356" font-size="10" x="1008">librealsense</text>
<text fill="#0000ff" y="805" font-size="10" x="1433">vulkan-trace</text>
<text fill="#0000ff" y="1065" font-size="10" x="619">libusb-compat</text>
<text fill="#6a6aa2" y="241" font-size="10" x="771">libxss</text>
<text fill="#6a6aa2" y="433" font-size="27" x="526">python2</text>
<text fill="#0000ff" y="905" font-size="10" x="1083">figlet</text>
<text fill="#6a6aa2" y="634" font-size="12" x="905">imagemagick</text>
<text fill="#0000ff" y="770" font-size="10" x="970">licenses</text>
<text fill="#6a6aa2" y="715" font-size="10" x="1101">libseccomp</text>
<text fill="#6a6aa2" y="1117" font-size="10" x="1146">lib32-libxfixes</text>
<text fill="#6a6aa2" y="602" font-size="10" x="501">libsecret</text>
<text fill="#0000ff" y="757" font-size="12" x="1484">vulkan-extra-layers</text>
<text fill="#0000ff" y="859" font-size="10" x="1037">net-tools</text>
<text fill="#6a6aa2" y="243" font-size="10" x="499">libsystemd</text>
<text fill="#6a6aa2" y="621" font-size="10" x="638">gsl</text>
<text fill="#0000ff" y="779" font-size="10" x="1044">patch</text>
<text fill="#6a6aa2" y="1357" font-size="10" x="1185">libxxf86vm</text>
<text fill="#6a6aa2" y="280" font-size="10" x="1525">libxvmc</text>
<text fill="#0000ff" y="652" font-size="30" x="1399">vlc</text>
<text fill="#6a6aa2" y="553" font-size="10" x="1056">xorg-mkfontdir</text>
<text fill="#6a6aa2" y="652" font-size="11" x="899">texinfo</text>
<text fill="#6a6aa2" y="592" font-size="10" x="355">libfontenc</text>
<text fill="#6a6aa2" y="1183" font-size="10" x="1131">lib32-alsa-lib</text>
<text fill="#6a6aa2" y="917" font-size="10" x="954">less</text>
<text fill="#6a6aa2" y="418" font-size="10" x="447">ijs</text>
<text fill="#6a6aa2" y="1261" font-size="10" x="898">libice</text>
<text fill="#6a6aa2" y="1518" font-size="83" x="130">clang</text>
<text fill="#6a6aa2" y="1050" font-size="10" x="934">python-sip</text>
<text fill="#0000ff" y="200" font-size="13" x="470">python-pyqt4</text>
<text fill="#0000ff" y="907" font-size="10" x="948">bison</text>
<text fill="#0000ff" y="1027" font-size="11" x="1060">sshfs</text>
<text fill="#6a6aa2" y="899" font-size="10" x="1196">speexdsp</text>
<text fill="#0000ff" y="908" font-size="37" x="670">steam</text>
<text fill="#6a6aa2" y="1371" font-size="10" x="1203">libpciaccess</text>
<text fill="#0000ff" y="735" font-size="10" x="752">htop</text>
<text fill="#6a6aa2" y="592" font-size="10" x="1445">libass</text>
<text fill="#6a6aa2" y="586" font-size="50" x="1520">mono</text>
<text fill="#6a6aa2" y="1182" font-size="10" x="892">lib32-libpng</text>
<text fill="#6a6aa2" y="1064" font-size="10" x="959">lib32-libidn</text>
<text fill="#6a6aa2" y="923" font-size="10" x="1162">libgcrypt</text>
<text fill="#6a6aa2" y="298" font-size="10" x="822">libxcomposite</text>
<text fill="#0000ff" y="966" font-size="10" x="818">xorg-xinit</text>
<text fill="#6a6aa2" y="1212" font-size="10" x="1302">lib32-libelf</text>
<text fill="#6a6aa2" y="1072" font-size="10" x="1222">lib32-libogg</text>
<text fill="#0000ff" y="918" font-size="11" x="1069">man-pages</text>
<text fill="#0000ff" y="1095" font-size="84" x="1570">hid-apple-patched-git</text>
<text fill="#6a6aa2" y="1198" font-size="10" x="1046">lib32-mesa-libgl</text>
<text fill="#6a6aa2" y="346" font-size="10" x="566">lcms2</text>
<text fill="#0000ff" y="1549" font-size="10" x="253">ycm-generator-git</text>
<text fill="#0000ff" y="636" font-size="10" x="769">i3-gaps</text>
<text fill="#0000ff" y="1062" font-size="15" x="847">gvfs</text>
<text fill="#6a6aa2" y="605" font-size="10" x="427">libxft</text>
<text fill="#6a6aa2" y="742" font-size="10" x="1120">libunwind</text>
<text fill="#0000ff" y="975" font-size="10" x="1064">vkcube-git</text>
<text fill="#6a6aa2" y="1088" font-size="10" x="1206">lib32-libvorbis</text>
<text fill="#6a6aa2" y="1005" font-size="13" x="767">util-linux</text>
<text fill="#6a6aa2" y="399" font-size="10" x="551">alsa-lib</text>
<text fill="#6a6aa2" y="925" font-size="10" x="487">libsndfile</text>
<text fill="#0000ff" y="1148" font-size="10" x="477">vulkan-intel</text>
<text fill="#6a6aa2" y="487" font-size="10" x="1188">xcb-util-image</text>
<text fill="#0000ff" y="820" font-size="10" x="961">dhcpcd</text>
<text fill="#0000ff" y="406" font-size="10" x="424">redshift</text>
<text fill="#6a6aa2" y="432" font-size="10" x="1134">xcb-util-wm</text>
<text fill="#6a6aa2" y="368" font-size="10" x="1714">libnotify</text>
<text fill="#6a6aa2" y="1015" font-size="10" x="2080">filesystem</text>
<text fill="#6a6aa2" y="463" font-size="10" x="639">libxslt</text>
<text fill="#6a6aa2" y="426" font-size="10" x="921">fontconfig</text>
<text fill="#0000ff" y="544" font-size="90" x="227">codelite-bin</text>
<text fill="#6a6aa2" y="940" font-size="10" x="1285">pygobject-devel</text>
<text fill="#6a6aa2" y="1231" font-size="10" x="1059">libxi</text>
<text fill="#6a6aa2" y="380" font-size="10" x="1076">librsvg</text>
<text fill="#6a6aa2" y="1322" font-size="10" x="814">zlib</text>
<text fill="#6a6aa2" y="1253" font-size="10" x="1045">lib32-libffi</text>
<text fill="#6a6aa2" y="748" font-size="10" x="911">dbus</text>
<text fill="#0000ff" y="46" font-size="55" x="0">5163MB</text>
<text fill="#6a6aa2" y="649" font-size="10" x="1329">libogg</text>
<text fill="#6a6aa2" y="441" font-size="10" x="1030">harfbuzz</text>
<text fill="#6a6aa2" y="641" font-size="10" x="1468">opencore-amr</text>
<text fill="#0000ff" y="865" font-size="12" x="784">gdb</text>
<text fill="#6a6aa2" y="182" font-size="18" x="581">qtwebkit</text>
<text fill="#0000ff" y="723" font-size="10" x="630">vi</text>
<text fill="#6a6aa2" y="1305" font-size="10" x="994">lib32-libx11</text>
<text fill="#6a6aa2" y="737" font-size="10" x="1054">libxdmcp</text>
<text fill="#6a6aa2" y="732" font-size="10" x="844">libunistring</text>
<text fill="#6a6aa2" y="709" font-size="10" x="705">xorg-fonts-encodings</text>
<text fill="#6a6aa2" y="478" font-size="12" x="1015">ttf-dejavu</text>
<text fill="#6a6aa2" y="944" font-size="11" x="460">freetype2</text>
<text fill="#6a6aa2" y="1086" font-size="10" x="933">nettle</text>
<text fill="#0000ff" y="843" font-size="100" x="302">blender</text>
<text fill="#0000ff" y="626" font-size="10" x="413">lxappearance</text>
<text fill="#6a6aa2" y="637" font-size="10" x="1325">libmodplug</text>
<text fill="#6a6aa2" y="431" font-size="10" x="1282">libxkbcommon-x11</text>
<text fill="#0000ff" y="1257" font-size="32" x="699">firefox</text>
<text fill="#6a6aa2" y="637" font-size="10" x="515">libxv</text>
<text fill="#6a6aa2" y="268" font-size="10" x="766">libtheora</text>
<text fill="#6a6aa2" y="707" font-size="10" x="1465">speex</text>
<text fill="#6a6aa2" y="584" font-size="10" x="627">libxkbfile</text>
<text fill="#6a6aa2" y="646" font-size="10" x="773">gc</text>
<text fill="#6a6aa2" y="1119" font-size="10" x="998">p11-kit</text>
<text fill="#6a6aa2" y="943" font-size="10" x="564">desktop-file-utils</text>
<text fill="#6a6aa2" y="397" font-size="10" x="331">libutil-linux</text>
<text fill="#0000ff" y="357" font-size="54" x="777">google-chrome</text>
<text fill="#6a6aa2" y="1195" font-size="10" x="788">sdl_image</text>
<text fill="#6a6aa2" y="778" font-size="10" x="940">m4</text>
<text fill="#6a6aa2" y="1091" font-size="10" x="1095">lib32-zlib</text>
<text fill="#6a6aa2" y="931" font-size="10" x="365">libxinerama</text>
<text fill="#6a6aa2" y="637" font-size="11" x="615">libsoup</text>
<text fill="#6a6aa2" y="1593" font-size="20" x="107">llvm-libs</text>
<text fill="#6a6aa2" y="1030" font-size="11" x="615">bash</text>
<text fill="#6a6aa2" y="207" font-size="10" x="624">krb5</text>
<text fill="#6a6aa2" y="882" font-size="10" x="1055">json-c</text>
<text fill="#6a6aa2" y="732" font-size="10" x="381">glew</text>
<text fill="#6a6aa2" y="1029" font-size="10" x="481">jemalloc</text>
<text fill="#6a6aa2" y="393" font-size="10" x="610">pciutils</text>
<text fill="#6a6aa2" y="976" font-size="10" x="630">xorg-font-utils</text>
<text fill="#6a6aa2" y="992" font-size="10" x="711">tdb</text>
<text fill="#6a6aa2" y="899" font-size="10" x="497">libtiff</text>
<text fill="#6a6aa2" y="1036" font-size="13" x="950">glib2</text>
<text fill="#6a6aa2" y="990" font-size="10" x="784">xproto</text>
<text fill="#0000ff" y="734" font-size="10" x="598">cmatrix</text>
<text fill="#6a6aa2" y="1212" font-size="10" x="1193">lib32-libxdamage</text>
<text fill="#6a6aa2" y="1114" font-size="10" x="1061">lib32-ncurses</text>
<text fill="#6a6aa2" y="881" font-size="11" x="556">jack</text>
<text fill="#6a6aa2" y="1292" font-size="10" x="1006">lib32-util-linux</text>
<text fill="#6a6aa2" y="403" font-size="11" x="992">pyqt5-common</text>
<text fill="#0000ff" y="949" font-size="10" x="1214">cryptsetup</text>
<text fill="#6a6aa2" y="660" font-size="10" x="1014">python-dbus</text>
<text fill="#6a6aa2" y="959" font-size="11" x="462">openexr</text>
<text fill="#0000ff" y="691" font-size="20" x="1009">geoip-database-extra</text>
<text fill="#6a6aa2" y="675" font-size="10" x="1335">libsoxr</text>
<text fill="#6a6aa2" y="1075" font-size="10" x="965">libarchive</text>
<text fill="#6a6aa2" y="804" font-size="11" x="826">pam</text>
<text fill="#6a6aa2" y="490" font-size="11" x="1046">libinput</text>
<text fill="#6a6aa2" y="358" font-size="10" x="1701">nspr</text>
<text fill="#6a6aa2" y="221" font-size="10" x="688">libxtst</text>
<text fill="#6a6aa2" y="751" font-size="10" x="666">ncurses</text>
<text fill="#0000ff" y="902" font-size="12" x="1602">man-db</text>
<text fill="#6a6aa2" y="828" font-size="10" x="756">libxfont</text>
<text fill="#6a6aa2" y="592" font-size="10" x="1363">libbluray</text>
<text fill="#0000ff" y="320" font-size="56" x="493">spotify</text>
<text fill="#0000ff" y="1031" font-size="10" x="1097">python-gobject</text>
<text fill="#6a6aa2" y="897" font-size="10" x="1452">libelf</text>
<text fill="#0000ff" y="809" font-size="10" x="1138">which</text>
<text fill="#0000ff" y="869" font-size="10" x="1208">autoconf</text>
<text fill="#0000ff" y="834" font-size="10" x="978">pv</text>
<text fill="#0000ff" y="268" font-size="53" x="840">qtcreator</text>
<text fill="#6a6aa2" y="608" font-size="10" x="680">lzo</text>
<text fill="#6a6aa2" y="1129" font-size="10" x="2215">kmod</text>
<text fill="#6a6aa2" y="463" font-size="10" x="537">libpaper</text>
<text fill="#6a6aa2" y="259" font-size="10" x="684">pyqt4-common</text>
<text fill="#0000ff" y="802" font-size="11" x="921">nano</text>
<text fill="#6a6aa2" y="926" font-size="10" x="910">expat</text>
<text fill="#0000ff" y="668" font-size="10" x="847">logrotate</text>
<text fill="#0000ff" y="650" font-size="10" x="619">automake</text>
<text fill="#6a6aa2" y="719" font-size="10" x="1400">readline</text>
<text fill="#0000ff" y="837" font-size="10" x="1179">fakeroot</text>
<text fill="#6a6aa2" y="945" font-size="10" x="848">gtk-update-icon-cache</text>
<text fill="#6a6aa2" y="442" font-size="10" x="1091">flac</text>
<text fill="#0000ff" y="851" font-size="14" x="825">xorg-server</text>
<text fill="#0000ff" y="714" font-size="10" x="653">dhex</text>
<text fill="#0000ff" y="864" font-size="10" x="1100">macchanger</text>
<text fill="#6a6aa2" y="1024" font-size="10" x="543">xorg-xrandr</text>
<text fill="#6a6aa2" y="818" font-size="10" x="1478">libsigc++</text>
<text fill="#0000ff" y="637" font-size="12" x="1551">pinta</text>
<text fill="#0000ff" y="743" font-size="10" x="994">nss-mdns</text>
<text fill="#0000ff" y="698" font-size="10" x="889">lm_sensors</text>
<text fill="#0000ff" y="771" font-size="10" x="804">xorg-xsetroot</text>
<text fill="#0000ff" y="901" font-size="10" x="1042">flex</text>
<text fill="#6a6aa2" y="725" font-size="10" x="1091">sip</text>
<text fill="#0000ff" y="716" font-size="10" x="527">strace</text>
<text fill="#6a6aa2" y="461" font-size="10" x="339">python-dbus-common</text>
<text fill="#0000ff" y="1000" font-size="10" x="1099">guvcview</text>
<text fill="#6a6aa2" y="673" font-size="10" x="769">harfbuzz-icu</text>
<text fill="#6a6aa2" y="348" font-size="11" x="708">gconf</text>
<text fill="#0000ff" y="1032" font-size="10" x="858">reiserfsprogs</text>
<text fill="#0000ff" y="1053" font-size="10" x="511">bash-completion</text>
<text fill="#0000ff" y="901" font-size="10" x="1123">bluez</text>
<text fill="#6a6aa2" y="547" font-size="10" x="971">atkmm</text>
<text fill="#6a6aa2" y="932" font-size="10" x="606">hicolor-icon-theme</text>
<text fill="#0000ff" y="460" font-size="10" x="967">xf86-input-libinput</text>
<text fill="#6a6aa2" y="986" font-size="11" x="1038">xkeyboard-config</text>
<text fill="#6a6aa2" y="621" font-size="13" x="931">poppler</text>
<text fill="#6a6aa2" y="819" font-size="20" x="1028">glibc</text>
<text fill="#6a6aa2" y="1003" font-size="22" x="1182">lib32-gcc-libs</text>
<text fill="#6a6aa2" y="1331" font-size="10" x="1189">libxshmfence</text>
<text fill="#0000ff" y="611" font-size="35" x="737">inkscape</text>
<text fill="#0000ff" y="921" font-size="19" x="1377">grub</text>
<text fill="#6a6aa2" y="725" font-size="10" x="1125">libgpg-error</text>
<text fill="#0000ff" y="1298" font-size="10" x="735">efibootmgr</text>
<text fill="#0000ff" y="810" font-size="10" x="862">netctl</text>
<text fill="#6a6aa2" y="1095" font-size="10" x="1186">atk</text>
<text fill="#6a6aa2" y="688" font-size="10" x="1372">gsm</text>
<text fill="#0000ff" y="837" font-size="10" x="1018">upower</text>
<text fill="#6a6aa2" y="868" font-size="10" x="996">gdbm</text>
<text fill="#6a6aa2" y="1209" font-size="10" x="1086">libjpeg-turbo</text>
<text fill="#0000ff" y="270" font-size="10" x="567">python2-gobject</text>
<text fill="#0000ff" y="437" font-size="40" x="1492">discord-canary</text>
<text fill="#6a6aa2" y="965" font-size="10" x="912">json-glib</text>
<text fill="#0000ff" y="809" font-size="10" x="949">mdadm</text>
<text fill="#6a6aa2" y="672" font-size="10" x="1031">iproute2</text>
<text fill="#0000ff" y="760" font-size="10" x="769">xf86-input-synaptics</text>
<text fill="#6a6aa2" y="395" font-size="10" x="1481">libraw1394</text>
<text fill="#6a6aa2" y="1241" font-size="10" x="1028">libxrandr</text>
<text fill="#6a6aa2" y="421" font-size="17" x="801">git</text>
<text fill="#6a6aa2" y="750" font-size="10" x="849">libxau</text>
<text fill="#6a6aa2" y="1233" font-size="10" x="1134">libcups</text>
<text fill="#6a6aa2" y="465" font-size="12" x="458">geoclue2</text>
<text fill="#6a6aa2" y="721" font-size="10" x="952">hwids</text>
<text fill="#0000ff" y="854" font-size="10" x="1149">tlp</text>
<text fill="#6a6aa2" y="651" font-size="10" x="1482">xvidcore</text>
<text fill="#6a6aa2" y="1145" font-size="10" x="617">libxfixes</text>
<text fill="#6a6aa2" y="820" font-size="10" x="1168">device-mapper</text>
<text fill="#0000ff" y="1006" font-size="10" x="542">neofetch</text>
<text fill="#0000ff" y="882" font-size="11" x="1093">vulkan-html-docs</text>
<text fill="#6a6aa2" y="1231" font-size="10" x="883">glfw-x11</text>
<text fill="#6a6aa2" y="750" font-size="10" x="1199">fuse</text>
<text fill="#6a6aa2" y="1200" font-size="10" x="965">gdk-pixbuf2</text>
<text fill="#0000ff" y="780" font-size="10" x="967">rofi</text>
<text fill="#6a6aa2" y="1109" font-size="10" x="992">cairo</text>
<text fill="#0000ff" y="698" font-size="10" x="497">s-nail</text>
<text fill="#0000ff" y="1042" font-size="16" x="332">python-neovim</text>
<text fill="#6a6aa2" y="873" font-size="12" x="1421">polkit</text>
<text fill="#6a6aa2" y="713" font-size="10" x="878">iptables</text>
<text fill="#6a6aa2" y="1133" font-size="10" x="2150">gzip</text>
<text fill="#6a6aa2" y="1031" font-size="10" x="996">dconf</text>
<text fill="#0000ff" y="1073" font-size="12" x="790">thunar</text>
<text fill="#6a6aa2" y="1264" font-size="11" x="1021">lib32-glib2</text>
<text fill="#6a6aa2" y="732" font-size="10" x="484">pcre</text>
<text fill="#0000ff" y="695" font-size="10" x="635">rxvt-unicode</text>
<text fill="#0000ff" y="827" font-size="10" x="1110">kbdlight</text>
<text fill="#6a6aa2" y="786" font-size="10" x="852">attr</text>
<text fill="#0000ff" y="1247" font-size="10" x="1270">libfreenect2</text>
<text fill="#6a6aa2" y="402" font-size="10" x="1170">opus</text>
<text fill="#0000ff" y="927" font-size="10" x="745">jfsutils</text>
<text fill="#6a6aa2" y="914" font-size="10" x="826">fixesproto</text>
<text fill="#6a6aa2" y="967" font-size="10" x="974">libepoxy</text>
<text fill="#6a6aa2" y="755" font-size="10" x="1401">libvdpau</text>
<text fill="#6a6aa2" y="727" font-size="10" x="1355">libva</text>
<text fill="#6a6aa2" y="640" font-size="10" x="1242">fribidi</text>
<text fill="#6a6aa2" y="659" font-size="22" x="692">perl</text>
<text fill="#6a6aa2" y="953" font-size="10" x="1124">dnssec-anchors</text>
<text fill="#6a6aa2" y="662" font-size="11" x="457">openssl</text>
<text fill="#0000ff" y="683" font-size="10" x="761">perl-anyevent-i3</text>
<text fill="#0000ff" y="447" font-size="10" x="716">openconnect</text>
<text fill="#0000ff" y="847" font-size="10" x="946">vulkan-man-pages</text>
<text fill="#0000ff" y="750" font-size="10" x="580">procps-ng</text>
<text fill="#6a6aa2" y="611" font-size="10" x="257">libedit</text>
<text fill="#0000ff" y="1112" font-size="15" x="507">python-pyqt5</text>
<text fill="#6a6aa2" y="1099" font-size="10" x="897">libdatrie</text>
<text fill="#6a6aa2" y="1072" font-size="10" x="1061">glu</text>
<text fill="#6a6aa2" y="636" font-size="18" x="349">gtk2</text>
<text fill="#6a6aa2" y="393" font-size="12" x="1250">guile</text>
<text fill="#0000ff" y="428" font-size="14" x="278">arandr-git</text>
<text fill="#0000ff" y="834" font-size="10" x="1444">compton</text>
<text fill="#0000ff" y="697" font-size="10" x="537">wpa_supplicant</text>
<text fill="#0000ff" y="382" font-size="32" x="488">hplip</text>
<text fill="#6a6aa2" y="258" font-size="10" x="579">libssh2</text>
<text fill="#0000ff" y="1064" font-size="10" x="888">connman-gtk</text>
<text fill="#6a6aa2" y="1004" font-size="33" x="916">gtk3</text>
<text fill="#0000ff" y="1054" font-size="10" x="706">dmenu</text>
<text fill="#6a6aa2" y="1056" font-size="10" x="1041">sdl</text>
<text fill="#6a6aa2" y="595" font-size="10" x="633">mesa-libgl</text>
<text fill="#6a6aa2" y="607" font-size="11" x="612">enchant</text>
<text fill="#6a6aa2" y="657" font-size="11" x="790">pangomm</text>
<text fill="#0000ff" y="82" font-size="43" x="199">jdk8-openjdk</text>
<text fill="#6a6aa2" y="1089" font-size="13" x="985">lib32-glibc</text>
<text fill="#6a6aa2" y="948" font-size="11" x="297">shared-mime-info</text>
<text fill="#6a6aa2" y="838" font-size="19" x="1495">ffmpeg</text>
<text fill="#6a6aa2" y="415" font-size="11" x="1077">libtool</text>
<text fill="#6a6aa2" y="1044" font-size="11" x="1036">gnutls</text>
<text fill="#6a6aa2" y="959" font-size="11" x="555">libxcb</text>
<text fill="#0000ff" y="915" font-size="10" x="1599">powertop</text>
<text fill="#6a6aa2" y="1181" font-size="10" x="2031">ca-certificates-utils</text>
<text fill="#6a6aa2" y="207" font-size="11" x="594">nss</text>
<text fill="#6a6aa2" y="666" font-size="10" x="533">orc</text>
<text fill="#6a6aa2" y="552" font-size="10" x="1651">giflib</text>
<text fill="#6a6aa2" y="903" font-size="10" x="1281">gsettings-desktop-schemas</text>
<text fill="#6a6aa2" y="882" font-size="10" x="627">openal</text>
<text fill="#0000ff" y="708" font-size="14" x="1013">pacaur</text>
<text fill="#6a6aa2" y="315" font-size="10" x="1479">libusb</text>
<text fill="#0000ff" y="753" font-size="10" x="1076">systemd-sysvcompat</text>
<text fill="#6a6aa2" y="630" font-size="10" x="1630">ca-certificates</text>
<text fill="#6a6aa2" y="808" font-size="10" x="248">libglade</text>
<text fill="#6a6aa2" y="1014" font-size="11" x="1067">e2fsprogs</text>
<text fill="#6a6aa2" y="627" font-size="10" x="704">xz</text>
<text fill="#6a6aa2" y="972" font-size="10" x="577">libpng</text>
<text fill="#6a6aa2" y="1011" font-size="10" x="1014">wayland</text>
<text fill="#6a6aa2" y="1099" font-size="10" x="959">gmp</text>
<text fill="#0000ff" y="732" font-size="10" x="929">pcmciautils</text>
<text fill="#6a6aa2" y="1189" font-size="10" x="1306">libdrm</text>
<text fill="#6a6aa2" y="715" font-size="10" x="1240">schroedinger</text>
<text fill="#6a6aa2" y="661" font-size="17" x="170">gst-plugins-base-libs</text>
<text fill="#6a6aa2" y="758" font-size="10" x="928">libcap</text>
<text fill="#0000ff" y="861" font-size="11" x="1635">lvm2</text>
<text fill="#6a6aa2" y="626" font-size="10" x="574">libxmu</text>
<text fill="#6a6aa2" y="743" font-size="10" x="494">jasper</text>
<text fill="#0000ff" y="1118" font-size="10" x="796">connman</text>
<text fill="#6a6aa2" y="891" font-size="35" x="808">python</text>
<text fill="#6a6aa2" y="746" font-size="12" x="332">libxml2</text>
<text fill="#6a6aa2" y="451" font-size="10" x="602">libaio</text>
<text fill="#6a6aa2" y="372" font-size="31" x="615">qt4</text>
<text fill="#6a6aa2" y="472" font-size="23" x="1102">qt5-base</text>
<text fill="#6a6aa2" y="943" font-size="10" x="740">libxext</text>
<text fill="#6a6aa2" y="1264" font-size="10" x="936">inputproto</text>
<text fill="#0000ff" y="945" font-size="12" x="1035">bind-tools</text>
<text fill="#6a6aa2" y="1214" font-size="10" x="1030">keyutils</text>
<text fill="#6a6aa2" y="1285" font-size="10" x="798">hunspell</text>
<text fill="#0000ff" y="688" font-size="10" x="393">iputils</text>
<text fill="#6a6aa2" y="694" font-size="10" x="953">libevdev</text>
<text fill="#6a6aa2" y="797" font-size="14" x="1001">systemd</text>
<text fill="#6a6aa2" y="1027" font-size="10" x="816">avahi</text>
<text fill="#6a6aa2" y="530" font-size="10" x="954">popt</text>
<text fill="#6a6aa2" y="1022" font-size="10" x="648">xextproto</text>
<text fill="#6a6aa2" y="1344" font-size="10" x="782">dbus-glib</text>
<text fill="#6a6aa2" y="1226" font-size="10" x="936">libgudev</text>
<text fill="#6a6aa2" y="414" font-size="11" x="668">sqlite</text>
<text fill="#0000ff" y="720" font-size="16" x="388">nmap</text>
<text fill="#6a6aa2" y="591" font-size="10" x="462">libsm</text>
<text fill="#6a6aa2" y="880" font-size="11" x="993">glibmm</text>
<text fill="#6a6aa2" y="1053" font-size="10" x="769">libxdamage</text>
<text fill="#6a6aa2" y="1311" font-size="11" x="826">libvpx</text>
<text fill="#0000ff" y="369" font-size="46" x="1492">opencv</text>
<text fill="#0000ff" y="436" font-size="14" x="657">mercurial</text>
<text fill="#6a6aa2" y="300" font-size="10" x="935">libpulse</text>
<text fill="#0000ff" y="265" font-size="11" x="1180">flattr-icon-theme</text>
<text fill="#6a6aa2" y="1075" font-size="10" x="1084">libldap</text>
<text fill="#6a6aa2" y="877" font-size="29" x="1469">gcc-libs</text>
<text fill="#6a6aa2" y="576" font-size="10" x="1461">libmad</text>
<text fill="#6a6aa2" y="883" font-size="10" x="496">openjpeg</text>
<text fill="#6a6aa2" y="668" font-size="10" x="948">mtdev</text>
<text fill="#6a6aa2" y="960" font-size="12" x="731">libx11</text>
<text fill="#6a6aa2" y="1140" font-size="10" x="2259">gawk</text>
<text fill="#6a6aa2" y="1039" font-size="10" x="658">xcb-util</text>
<text fill="#6a6aa2" y="1222" font-size="10" x="1141">lib32-xz</text>
<text fill="#0000ff" y="775" font-size="10" x="1546">simple-mtpfs-git</text>
<text fill="#0000ff" y="1016" font-size="17" x="616">vim</text>
<text fill="#6a6aa2" y="895" font-size="10" x="599">bzip2</text>
<text fill="#0000ff" y="801" font-size="13" x="1172">cups</text>
<text fill="#6a6aa2" y="1114" font-size="10" x="865">libtasn1</text>
<text fill="#6a6aa2" y="779" font-size="10" x="1110">vulkan-icd-loader</text>
<text fill="#0000ff" y="1022" font-size="12" x="727">pavucontrol</text>
<text fill="#6a6aa2" y="1198" font-size="11" x="913">pango</text>
<text fill="#6a6aa2" y="990" font-size="10" x="2132">findutils</text>
<text fill="#0000ff" y="843" font-size="10" x="1096">pugixml</text>
<text fill="#6a6aa2" y="377" font-size="10" x="352">python2-sip</text>
<text fill="#6a6aa2" y="1094" font-size="17" x="714">lib32-freetype2</text>
<text fill="#6a6aa2" y="989" font-size="10" x="462">intel-tbb</text>
<text fill="#6a6aa2" y="1217" font-size="10" x="869">pixman</text>
<text fill="#0000ff" y="690" font-size="17" x="315">lolcat</text>
<text fill="#6a6aa2" y="670" font-size="10" x="1470">libproxy</text>
<text fill="#6a6aa2" y="1055" font-size="10" x="1109">libxrender</text>
<text fill="#6a6aa2" y="827" font-size="10" x="842">libffi</text>
<text fill="#6a6aa2" y="1322" font-size="10" x="1098">lib32-systemd</text>
<text fill="#6a6aa2" y="364" font-size="10" x="677">libidn</text>
<text fill="#6a6aa2" y="587" font-size="10" x="697">curl</text>
<text fill="#6a6aa2" y="915" font-size="10" x="563">snappy</text>
<text fill="#6a6aa2" y="757" font-size="10" x="1042">acl</text>
<text fill="#0000ff" y="930" font-size="10" x="825">pacgraph</text>
<text fill="#6a6aa2" y="526" font-size="10" x="1071">xorg-mkfontscale</text>
<text fill="#6a6aa2" y="1581" font-size="10" x="264">mpfr</text>
<text fill="#0000ff" y="919" font-size="11" x="1466">pulseaudio</text>
<text fill="#0000ff" y="352" font-size="11" x="359">xfsprogs</text>
<text fill="#0000ff" y="448" font-size="13" x="269">python2-pyqt4</text>
<text fill="#0000ff" y="527" font-size="16" x="1408">mono-pcl</text>
<text fill="#6a6aa2" y="685" font-size="10" x="451">libwebp</text>
<text fill="#6a6aa2" y="435" font-size="12" x="396">cups-filters</text>
<text fill="#0000ff" y="1009" font-size="10" x="859">baobab</text>
<text fill="#6a6aa2" y="623" font-size="10" x="1466">libx264</text>
<text fill="#6a6aa2" y="1143" font-size="13" x="2040">coreutils</text>
<text fill="#0000ff" y="796" font-size="10" x="1116">tree</text>
<text fill="#0000ff" y="962" font-size="10" x="607">lemonbar-xft-git</text>
<text fill="#6a6aa2" y="585" font-size="10" x="564">libssh</text>
<text fill="#6a6aa2" y="376" font-size="10" x="676">libnl</text>
<text fill="#0000ff" y="981" font-size="10" x="444">feh</text>
<text fill="#6a6aa2" y="1119" font-size="10" x="649">lib32-bzip2</text>
<text fill="#6a6aa2" y="769" font-size="10" x="1102">yajl</text>
<text fill="#0000ff" y="732" font-size="11" x="1496">calc</text>
<text fill="#6a6aa2" y="1245" font-size="10" x="887">lib32-libxext</text>
<text fill="#6a6aa2" y="617" font-size="10" x="1381">lame</text>
<text fill="#0000ff" y="1075" font-size="10" x="931">mtpfs</text>
<text fill="#6a6aa2" y="671" font-size="10" x="604">libxt</text>
<text fill="#0000ff" y="782" font-size="10" x="1083">acpi</text>
<text fill="#0000ff" y="1199" font-size="10" x="670">xorg-xbacklight</text>
<text fill="#6a6aa2" y="609" font-size="10" x="1475">v4l-utils</text>
<text fill="#0000ff" y="809" font-size="10" x="1220">xf86-video-intel</text>
<text fill="#6a6aa2" y="932" font-size="18" x="326">icu</text>
<text fill="#0000ff" y="999" font-size="11" x="1003">gtk-theme-arc</text>
<text fill="#0000ff" y="1160" font-size="47" x="682">dwarffortress-lnp-git</text>
<text fill="#6a6aa2" y="924" font-size="19" x="987">mesa</text>
<text fill="#6a6aa2" y="594" font-size="10" x="1030">amdgpu-pro-libopencl-dev</text>
<text fill="#6a6aa2" y="530" font-size="10" x="1514">libexif</text>
<text fill="#0000ff" y="979" font-size="16" x="1543">cmake</text>
<text fill="#0000ff" y="1045" font-size="10" x="860">pkg-config</text>
<text fill="#0000ff" y="387" font-size="10" x="925">ttf-fantasque-sans</text>
<text fill="#6a6aa2" y="883" font-size="10" x="318">xdg-utils</text>
<text fill="#0000ff" y="720" font-size="10" x="717">tty-clock</text>
<text fill="#0000ff" y="930" font-size="10" x="1592">spirv-tools</text>
<text fill="#6a6aa2" y="918" font-size="10" x="362">libxcursor</text>
<text fill="#6a6aa2" y="354" font-size="10" x="1444">libmtp</text>
<text fill="#6a6aa2" y="663" font-size="13" x="1301">x265</text>
<text fill="#6a6aa2" y="891" font-size="10" x="967">sysfsutils</text>
<text fill="#0000ff" y="373" font-size="15" x="224">python2-pyqt5</text>
<text fill="#6a6aa2" y="992" font-size="10" x="537">libid3tag</text>
<text fill="#6a6aa2" y="308" font-size="13" x="1025">noto-fonts</text></g></svg>